<?xml version="1.0" encoding="utf-8"?>
<!-- Generator: Adobe Illustrator 24.3.0, SVG Export Plug-In . SVG Version: 6.00 Build 0)  -->
<svg version="1.1" id="Layer_1" xmlns="http://www.w3.org/2000/svg" xmlns:xlink="http://www.w3.org/1999/xlink" x="0px" y="0px"
	 viewBox="0 0 171.5 122.9" style="enable-background:new 0 0 171.5 122.9;" xml:space="preserve">
<style type="text/css">
	.st0{fill:#313639;stroke:#313639;stroke-miterlimit:10;}
</style>
<g id="Layer_2_1_">
	<g id="Layer_1-2">
		<path class="st0" d="M104.9,56c0.6,25.4-9.6,55.2-19.2,55.2S66,81.4,66.6,56c0.6-25.8,12.2-45.3,19.2-55.1
			C92.7,10.7,104.3,30.2,104.9,56z"/>
		<path class="st0" d="M150.2,91.2c-15.9,19.8-42.8,36.1-50.1,29.9s4-35.4,20.8-54.5c17.1-19.4,38.5-26.9,50.1-29.9
			C170,48.6,166.4,71,150.2,91.2z"/>
		<path class="st0" d="M50.7,65.7c16.8,19.1,28.1,48.4,20.8,54.5s-34.2-10.1-50.1-29.9C5.2,70.2,1.5,47.8,0.6,35.8
			C12.2,38.8,33.6,46.3,50.7,65.7z"/>
	</g>
</g>
</svg>
