<?xml version="1.0" encoding="UTF-8"?>
<svg width="174.9" height="165.78" viewBox="0 0 998 946" xmlns="http://www.w3.org/2000/svg">
 <g transform="matrix(1.8375 0 0 1.8375 -334.7 -465)">
  <path d="m225 288 1 10 36 358 4 59h1l5 2 8 1 11 2 12 3 14 2 15 3 16 3 17 3 16 4 16 3 14 3 14 2 12 2 10 1 8 1h14l9-1 11-2 12-2 13-2 12-2 13-3 13-2 11-3 11-2 9-2 9-2 6-2h3l2-1 9-46 18-104 35-213 3-65-7-5h-1l-5-1-5-1-8-2-10-1-12-2-13-3-14-2-16-2-16-2-17-2-18-2-17-1-19-2-18-1h-54l-18 1-17 1-17 2-16 2-15 2-14 3-13 2-12 3-10 2-9 2-7 1-5 2h-3l-1 1-36-3z"/>
  <path d="m271 302h5l5-1 7-1 8-1 10-2 11-1 11-1 13-1 12-1 13-2 12-1 12-1h12l10-1h36l8-1h7l7-1h8l7-1h7l7-1h27l8 1 7 1 8 1 8 1 9 1 8 2 9 1 9 2 8 1 9 2 7 1 8 1 6 2 5 1 5 1 3 1h3l1 3 2 7v8l-3 6-6 6-6 3-5 3-5 2h-21l-6 1-7 1-9 1-7 2-8 2-6 2-4 1h-1l-3 1-8 2-10 2-13 4-14 3-13 2-12 1h-8l-8-1h-10l-11-1h-21l-8 1h-8l-3-1-6-2-9-3-11-4-12-4-11-4-10-3-8-3-11-4-13-5-12-5-12-5-9-5-7-6-4-5 1-5z" fill="#910000"/>
  <path d="m241 307 2 1 5 2 6 4 10 5 11 6 12 6 13 7 14 8 15 7 14 8 13 7 13 6 12 6 10 4 8 3 5 2 6 1h19l11-1h10l10-1h8l192-51-63 373h-1l-4 1-6 1-9 1-10 2-11 2-13 2-12 2-14 2-13 2-13 2-12 2-11 1-10 1-8 1h-21l-10-1-12-1-13-1-13-2-15-1-14-2-14-2-13-3-13-2-10-3-10-3-7-3-5-3-1-4-38-394z" fill="#ff3f3f"/>
  <path d="m282 366 22 303-1 25 8 8 6-17 51-270-86-49z" fill="#ff7f7f"/>
  <path d="m544 407-27 313 59-8 5-57 33-273-70 25z" fill="#ba0000"/>
  <path d="m234 317v1l-1 5-2 7-2 10-1 11-1 13-1 14 1 15 2 15 3 16 5 16 8 15 10 14 13 13 16 12 19 10 13 4 14 3h15l16-2 16-3 15-4 17-6 16-6 16-7 15-8 14-8 14-8 14-9 12-7 10-8 10-7 8-6 10-8 10-8 11-8 11-9 11-9 11-9 11-8 10-8 9-7 9-7 7-6 6-4 4-4 3-2 1-1v22l-2 2-5 5-9 8-11 11-14 13-16 14-18 16-19 15-21 16-22 15-21 15-22 12-22 11-21 8-20 6-19 2h-11l-11 1-11 1-11 2-11 1-10 2-11 1-10 1h-20l-9-1-10-3-9-3-9-5-8-7-8-8-12-22-8-29-3-30-1-31 1-29 2-24 2-16 1-6 11 7z"/>
 </g>
</svg>
