<?xml version="1.0" encoding="UTF-8"?>
<svg viewBox="0 0 425.03644 394.96179" xmlns="http://www.w3.org/2000/svg" xmlns:xlink="http://www.w3.org/1999/xlink">
 <defs>
  <linearGradient id="a">
   <stop stop-color="#784421" offset="0"/>
   <stop stop-color="#4d2c15" offset="1"/>
  </linearGradient>
  <linearGradient id="b">
   <stop stop-color="#76705a" offset="0"/>
   <stop stop-color="#c8c4b7" stop-opacity="0" offset="1"/>
  </linearGradient>
  <linearGradient id="k" x1="356.49" x2="400.55" y1="633.76" y2="632.59" gradientUnits="userSpaceOnUse">
   <stop stop-color="#aca793" offset="0"/>
   <stop stop-color="#aca793" stop-opacity="0" offset="1"/>
  </linearGradient>
  <linearGradient id="j" x1="447" x2="467.01" gradientUnits="userSpaceOnUse" xlink:href="#b"/>
  <linearGradient id="i" x1="500.19" x2="437.5" y1="634.14" y2="651.36" gradientUnits="userSpaceOnUse" xlink:href="#b"/>
  <linearGradient id="h" x1="402.24" x2="339.53" y1="659.02" y2="721.74" gradientUnits="userSpaceOnUse" xlink:href="#a"/>
  <linearGradient id="g" x1="397.95" x2="347.56" y1="654.96" y2="705.35" gradientUnits="userSpaceOnUse" xlink:href="#a"/>
  <linearGradient id="f" x1="228.16" x2="299.37" y1="607.73" y2="626.81" gradientUnits="userSpaceOnUse" xlink:href="#b"/>
  <radialGradient id="e" cx="276.82" cy="314.05" r="212.52" gradientTransform="matrix(0 .88122 -1.8234 0 869.22 136.15)" gradientUnits="userSpaceOnUse">
   <stop stop-color="#f56060" offset="0"/>
   <stop stop-color="#960d0d" offset="1"/>
  </radialGradient>
  <radialGradient id="c" cx="436.73" cy="537.53" r="212.52" gradientTransform="matrix(1.2279e-7 .17872 -.99562 6.8401e-7 909.94 480.92)" gradientUnits="userSpaceOnUse">
   <stop offset="0"/>
   <stop stop-opacity="0" offset="1"/>
  </radialGradient>
  <radialGradient id="d" cx="397" cy="684.27" r="12.253" gradientTransform="matrix(.98328 0 1.1864e-6 1 7.0247 -1.9125e-6)" gradientUnits="userSpaceOnUse" xlink:href="#a"/>
 </defs>
 <g transform="translate(-161.31 -340.92)">
  <path d="m518.62 680.38c-24.995-51.892-32.62-95.942-21.658-115.92 10.695-19.496 63.754 5.4789 83.506-26.734 19.47-31.754-31.662-193.85-214.54-194.8-180.36-0.93918-214.33 167.06-199.53 195.75 14.543 28.2 63.723 7.2347 83.516 22.318s5.1119 83.528-15.336 123.81c-20.194 39.783 75.405 49.962 147.04 49.019s161.27-3.058 137-53.439z" fill="url(#f)" fill-rule="evenodd" stroke="#000" stroke-linejoin="round" stroke-width="4"/>
  <path d="m518.62 680.38c-24.995-51.892-32.62-95.942-21.658-115.92 10.695-19.496 63.754 5.4789 83.506-26.734 19.47-31.754-31.662-193.85-214.54-194.8-180.36-0.93918-214.33 167.06-199.53 195.75 14.543 28.2 63.723 7.2347 83.516 22.318s5.1119 83.528-15.336 123.81c-20.194 39.783 75.405 49.962 147.04 49.019s161.27-3.058 137-53.439z" fill="url(#i)" fill-rule="evenodd" stroke="#000" stroke-linejoin="round" stroke-width="4"/>
  <path d="m518.62 680.38c-24.995-51.892-32.62-95.942-21.658-115.92 10.695-19.496 63.754 5.4789 83.506-26.734 19.47-31.754-31.662-193.85-214.54-194.8-180.36-0.93918-214.33 167.06-199.53 195.75 14.543 28.2 63.723 7.2347 83.516 22.318s5.1119 83.528-15.336 123.81c-20.194 39.783 75.405 49.962 147.04 49.019s161.27-3.058 137-53.439z" fill="url(#c)" fill-rule="evenodd" stroke="#000" stroke-linejoin="round" stroke-width="4"/>
  <path d="m464.85 568.23c40.313-4.824 95.86 1.7018 115.61-30.511 19.47-31.754-31.662-193.85-214.54-194.8-180.36-0.93918-214.33 167.06-199.53 195.75 14.543 28.2 74.884 30.192 111.84 31.76 36.929 1.5668 146.92 2.5512 186.61-2.1985z" fill="url(#e)" fill-rule="evenodd" stroke="#000" stroke-linejoin="round" stroke-width="4"/>
  <path d="m375.81 620.7c-45.64 1.5738-57.527 81.727-56.276 110.95 16.792 1.0983 46.13 2.373 62.089 2.163 11.959-0.15738 39.886-1.0478 52.235-1.4897-2.2949-34.821-12.407-113.2-58.047-111.62z" fill="url(#k)" fill-rule="evenodd" stroke="#000" stroke-linejoin="round" stroke-width="4"/>
  <path d="m375.34 625.25c-37.01 1.2781-49.222 78.676-39.875 107.56 15.585 0.91366 31.383 1.1944 46.156 1 10.91-0.14358 22.22-0.29188 33.5-0.65625 11.543-25.143-3.3682-109.16-39.781-107.91z" fill="url(#h)" fill-rule="evenodd" stroke="#000" stroke-linejoin="round" stroke-width="4"/>
  <path d="m351.11 639.95 1.3971 93.63m24.769-108.31 0.22566 108.59m26.406-87.672-2.4071 87.313" fill="none" stroke="#000" stroke-linejoin="round" stroke-width="4"/>
  <path d="m337.26 671.49 76.404-0.585 3.0487 13.709-81.962-1.4633 2.5093-11.661z" fill="url(#g)" fill-rule="evenodd" stroke="#000" stroke-linejoin="round" stroke-width="4"/>
  <path d="m433.23 637.73c6.0544 5.9272 45.118 0.58054 47.909-5.0052 2.8956-5.7955-5.528-39.251-31.852-36.354-26.064 2.8691-22.248 35.299-16.057 41.359z" fill="url(#j)" fill-rule="evenodd" stroke="#000" stroke-width="4"/>
  <path d="m432.87 637.35c4.7402 4.6225 35.325 0.45275 37.51-3.9035 2.2671-4.5198-4.328-30.611-24.938-28.352-20.406 2.2376-17.419 27.529-12.572 32.255z" fill="#483e37" fill-rule="evenodd" stroke="#000" stroke-width="4"/>
  <path d="m444.45 626.9c2.3049 2.2047 17.176 0.21595 18.239-1.8618 1.1023-2.1558-2.1044-14.6-12.126-13.522-9.9222 1.0672-8.4695 13.13-6.1129 15.384z" fill="#fff" fill-opacity=".39216" fill-rule="evenodd"/>
  <path transform="matrix(.95083 .30972 -.30972 .95083 145.02 -67.578)" d="m249.61 479.25a16.971 27.931 0 1 1 -33.941 0 16.971 27.931 0 1 1 33.941 0z" fill="#fff"/>
  <path transform="matrix(.93909 .82212 -.61282 .67751 366.24 -108.12)" d="m249.61 479.25a16.971 27.931 0 1 1 -33.941 0 16.971 27.931 0 1 1 33.941 0z" fill="#fff"/>
  <path transform="matrix(1.9379 -.29381 .35412 .93201 -209.36 96.692)" d="m249.61 479.25a16.971 27.931 0 1 1 -33.941 0 16.971 27.931 0 1 1 33.941 0z" fill="#fff"/>
  <path transform="matrix(1.2301 -.14198 .72567 .57152 -186.7 141.18)" d="m249.61 479.25a16.971 27.931 0 1 1 -33.941 0 16.971 27.931 0 1 1 33.941 0z" fill="#fff"/>
  <path transform="matrix(1.0095 .99671 -.30121 .89273 427.71 -167.91)" d="m249.61 479.25a16.971 27.931 0 1 1 -33.941 0 16.971 27.931 0 1 1 33.941 0z" fill="#fff"/>
  <path transform="matrix(1.563 -.66697 .4058 1.0112 -255.9 192.23)" d="m249.61 479.25a16.971 27.931 0 1 1 -33.941 0 16.971 27.931 0 1 1 33.941 0z" fill="#fff"/>
  <path transform="matrix(.76758 .055235 -.10004 .4238 231.06 197.18)" d="m249.61 479.25a16.971 27.931 0 1 1 -33.941 0 16.971 27.931 0 1 1 33.941 0z" fill="#fff"/>
  <path transform="matrix(.58837 .19417 .055322 .40775 319 184.93)" d="m249.61 479.25a16.971 27.931 0 1 1 -33.941 0 16.971 27.931 0 1 1 33.941 0z" fill="#fff"/>
  <path transform="matrix(2.01 -.036979 -.24982 .32009 -5.0763 211.51)" d="m249.61 479.25a16.971 27.931 0 1 1 -33.941 0 16.971 27.931 0 1 1 33.941 0z" fill="#fff"/>
  <path transform="translate(-1.4105 -8.7071)" d="m410.48 687.14a10.253 10.253 0 1 1 -20.506 0 10.253 10.253 0 1 1 20.506 0z" fill="url(#d)" stroke="#000" stroke-linejoin="round" stroke-width="4"/>
 </g>
</svg>
