<?xml version="1.0" encoding="UTF-8"?>
<svg viewBox="0 0 459.68082 441.66623" xmlns="http://www.w3.org/2000/svg">
 <g transform="matrix(.99969 .02492 -.02492 .99969 -167.27 -222.35)">
  <path d="m203.87 656.96c-4.0631-1.6721-13.924-11.07-17.451-16.63-4.5339-7.1492-4.4436-12.044 0.29566-16.032 2.3628-1.9882 5.0889-3.0792 7.6936-3.0792 3.7477 0 8.5018-4.4972 66.954-63.336 52.076-52.42 87.381-89.96 113.01-120.16 1.9695-2.321 0.93784-3.3949-26.066-27.136-6.2561-5.5001-18.834-16.614-27.951-24.697-20.02-17.75-127.26-124.33-129.65-128.86-2.4806-4.6884-2.1156-13.313 0.80584-19.04 3.2274-6.3262 13.314-16.139 19.459-18.93 5.7626-2.6176 12.417-2.8313 17.622-0.56591 4.2425 1.8464 98.889 96.405 122.15 122.03l23.207 25.572c4.7494 5.2334 13.564 15.3 19.588 22.369s11.683 12.69 12.574 12.489 15.154-15.62 31.695-34.263 41.302-45.405 55.026-59.47c50.619-51.877 90.591-91.921 95.104-95.274 3.7699-2.8012 5.8377-3.4468 11.04-3.4468 3.5208 0 8.1238 0.71976 10.229 1.5995 5.3874 2.2514 17.007 13.184 20.687 19.463 4.1394 7.0634 4.3695 15.905 0.57373 22.047-3.9814 6.442-115.84 116.06-143.51 140.64-45.232 40.172-49.36 43.9-49.351 44.556 8e-3 0.60688 3.8294 5.0584 22.515 26.231 3.7527 4.2521 10.444 12.013 14.87 17.246s35.84 37.481 69.81 71.662c58.414 58.776 61.992 62.146 65.982 62.146 4.8924 0 11.172 5.3234 11.172 9.4711 0 6.5667-11.438 20.195-20.627 24.577-7.4794 3.5667-15.055-0.96302-15.055-9.002 0-4.0128-3.2072-7.4432-59.768-63.924-39.722-39.666-69.541-68.284-88.908-85.327-16.027-14.104-29.676-25.647-30.33-25.651-0.65417-5e-3 -14.838 12.098-31.519 26.894-18.899 16.763-53.976 50.405-93.071 89.264-60.115 59.751-62.743 62.546-62.779 66.763-0.0726 8.4518-7.8098 13.192-16.019 9.8132z" fill="#efd08c"/>
  <path d="m202.28 655.66c-9.7378-5.9369-19.228-18.249-19.228-24.946 0-4.1275 5.213-8.31 10.358-8.31 4.3819 0 6.3786-1.8627 65.982-61.552 33.805-33.853 66.185-66.999 71.955-73.656s18.118-20.696 27.44-31.197 16.949-19.538 16.949-20.083-15.656-14.862-34.79-31.816c-35.246-31.229-146.76-140.38-150.27-147.08-2.4091-4.6032-2.073-12.473 0.78461-18.377 2.8087-5.8019 14.093-16.652 19.798-19.036 4.9899-2.0853 13.882-2.0428 17.938 0.0858 4.3184 2.2659 116.19 114.9 128.15 129.03 5.2053 6.147 11.07 12.839 13.032 14.87s10.457 11.587 18.876 21.235 15.73 17.541 16.246 17.541 4.8328-4.4157 9.5929-9.8126c41.267-46.787 66.528-73.639 116.37-123.7 40.576-40.752 58.894-58.367 61.639-59.273 2.1483-0.70899 6.022-0.93157 8.6082-0.49462 9.4699 1.5999 25.182 14.503 29.285 24.048 2.1851 5.0838 2.0836 12.73-0.23381 17.614-1.0338 2.1786-27.381 29.031-58.578 59.702-63.728 62.653-62.023 61.041-103.98 98.349-16.845 14.98-30.627 27.658-30.627 28.174s2.8394 4.0465 6.3097 7.8453c5.9291 6.4903 10.524 11.913 28.531 33.668 6.9256 8.3675 14.886 16.654 64.395 67.032 10.838 11.028 19.705 20.585 19.705 21.238 0 1.1124-16.928-13.534-20.202-17.479-0.82393-0.99277-2.2354-1.805-3.1365-1.805s-1.6385-0.71801-1.6385-1.5956c0-1.6574-12.365-14.766-26.762-28.37-4.5792-4.3272-11.735-11.699-15.902-16.383s-9.6478-9.8224-12.179-11.42-6.0801-5.156-7.8857-7.9064c-5.4121-8.2442-9.6522-11.719-13.254-10.86-4.7858 1.1403-6.6675 2.967-4.3769 4.2489 1.0226 0.57227 1.8593 1.6675 1.8593 2.4337s4.0919 5.423 9.0932 10.348 23.065 23.066 40.142 40.312c36.514 36.877 56.435 56.183 67.921 65.826 10.711 8.9924 17.227 15.466 17.238 17.123 5e-3 0.72218 1.4498 2.8631 3.2113 4.7576s4.4174 5.2287 5.9018 7.4094l2.6989 3.9649 3.0188-3.0188c4.0828-4.0828 3.8095-6.3472-1.4415-11.941-4.1488-4.4196-2.8542-4.1135 2.6762 0.63275 1.4188 1.2177 4.1669 1.9856 6.8097 1.903 8.2502-0.25796 12.466 6.7331 9.2154 15.283-1.7489 4.6-14.797 16.769-19.724 18.395-7.6326 2.519-13.548-2.1755-13.548-10.752 0-4.0064-0.43573-4.4598-75.527-78.595-38.753-38.259-76.774-73.619-101.75-94.627-3.1142-2.6195-53.734 43.523-125.72 114.6-62.314 61.526-63.336 62.611-63.336 67.212 0 3.5832-0.81296 5.4898-3.4767 8.1535-4.1566 4.1566-8.5388 4.4815-14.167 1.0502zm4.5602-12.598c0-1.8407-5.0687-8.6938-7.7102-10.425-3.1574-2.0688-8.9414-2.5881-8.9414-0.80271 0 0.60745 2.3443 3.5512 5.2096 6.5417 3.5907 3.7476 6.178 5.4372 8.3258 5.4372 1.7139 0 3.1162-0.33824 3.1162-0.75166zm407.92-14.632c1.5585-2.912 1.5865-6.8547 0.0554-7.8009-0.69839-0.43163-0.85778 0.10206-0.39257 1.3143 0.50124 1.3062 0.32088 1.7553-0.50099 1.2473-2.092-1.2929-5.0323 0.45441-6.9257 4.1158l-1.7706 3.4241h4.1516c2.8873 0 4.5266-0.70063 5.3829-2.3006zm-217.09-217.17c1.6697-2.1891 3.0359-4.3209 3.0359-4.7373 0-1.7682-7.5328-11.302-15.071-19.076-11.587-11.948-17.387-18.647-19.325-22.323-1.1978-2.2715-2.623-3.2007-4.9093-3.2007-4.056 0-6.7559-2.8778-4.8521-5.1718 1.8128-2.1842-2.4289-5.9983-6.7533-6.0725-2.8615-0.0491-3.2068-0.50329-3.2068-4.218 0-3.9647-0.19824-4.1629-4.1629-4.1629-3.8156 0-4.1629-0.29237-4.1629-3.504 0-2.7543-1.0179-4.1982-4.7576-6.7485-2.6167-1.7845-4.777-4.2358-4.8008-5.4473s-1.0214-3.5271-2.2171-5.1456c-2.1129-2.8601-2.1566-2.8676-1.5549-0.26658 0.42143 1.822 0.0729 2.6762-1.0921 2.6762-1.9295 0-4.3123-5.1292-2.6718-5.7513 0.57869-0.21942 0.76407-0.86508 0.41196-1.4348s-1.3621-0.75884-2.2445-0.42025c-1.0059 0.386-2.0776-0.74237-2.8735-3.0255-1.1532-3.3081-2.5161-4.2549-5.3838-3.7402-1.5472 0.27771-4.3899-2.418-3.71-3.5182 0.32939-0.53296-0.45204-1.3026-1.7365-1.7102-1.4101-0.44755-2.0747-1.4206-1.6773-2.4561s-1.1228-3.2427-3.8574-5.5888c-2.4835-2.1306-5.7726-5.0758-7.3092-6.5447s-4.3775-3.4898-6.3132-4.4908-3.5195-2.3415-3.5195-2.9789-1.126-2.2848-2.5022-3.661-2.6433-3.3833-2.8158-4.4603-1.1269-1.8939-2.1208-1.8154-4.4102-2.5418-7.5915-5.8229-7.5701-7.6272-9.7528-9.658c-12.715-11.83-13.421-12.666-12.675-15.018 0.57474-1.8109 0.19659-2.3527-1.6421-2.3527-1.3138 0-2.7522-0.58809-3.1964-1.3069s-2.4248-1.9868-4.4013-2.8178c-2.2882-0.96213-4.7512-3.6197-6.7804-7.3163-2.8997-5.2824-3.6136-5.8372-7.9248-6.1597-3.4572-0.25857-5.6354 0.35156-8.0579 2.2571-4.8336 3.8021-3.5497 8.3854 4.3639 15.578 3.4218 3.1099 6.6229 5.6675 7.1135 5.6837s0.89205 0.68793 0.89205 1.4928c0 1.503 12.969 13.946 14.57 13.98 0.49063 0.0103 0.89205 0.57663 0.89205 1.2584 0 1.4375 1.6526 3.5513 6.286 8.04 12.57 12.178 20.296 19.569 26.691 25.537 4.047 3.7762 8.0506 8.31 8.897 10.075s2.7766 3.8263 4.2894 4.5803c3.8253 1.9067 30.466 27.316 32.37 30.875 0.85698 1.6013 2.1367 2.9127 2.8439 2.9143s4.2295 3.2131 7.8275 7.1367 9.0841 9.8072 12.191 13.075 5.6497 6.3855 5.6497 6.9288c0 2.6751 6.3772 6.8344 11.129 7.2586 0.56061 0.0501 0.73625 0.82863 0.39029 1.7302-0.7415 1.9323 1.3229 4.3078 3.7437 4.3078 1.74 0 6.146 4.3532 6.146 6.0724 0 0.52292 2.6762 3.6269 5.947 6.8978s5.947 6.7173 5.947 7.6588 1.3534 2.0515 3.0076 2.4667c1.8387 0.46148 3.7543 2.3207 4.9288 4.7835 2.234 4.6847 3.7814 4.4655 8.0582-1.1416zm-32.67-23.793c-0.82749-0.99707-1.7495-1.5679-2.0488-1.2685-0.82484 0.82485 0.85108 3.0814 2.2885 3.0814 0.7887 0 0.69846-0.68245-0.23969-1.8128zm251.64-160.04c0.44378-0.71806 2.1025-0.95753 3.7567-0.54236l2.962 0.74342-2.58-3.6233c-2.5585-3.5931-9.5727-9.5648-11.235-9.5648-0.47561 0-1.6817 0.81694-2.6802 1.8154-1.6276 1.6276-1.6188 2.1154 0.0849 4.7158 1.0452 1.5952 1.9004 3.9896 1.9004 5.321 0 1.8859 0.77278 2.4207 3.498 2.4207 1.9239 0 3.8556-0.5786 4.2927-1.2858zm-24.084 377.56c-2.9815-2.0821-23.437-22.822-28.332-28.726-7.2726-8.7716-1.32-4.019 13.574 10.838 16.902 16.859 21.819 22.82 14.758 17.888z" fill="#f4c37b"/>
  <path d="m202.28 655.66c-9.7378-5.9369-19.228-18.249-19.228-24.946 0-4.1275 5.213-8.31 10.358-8.31 4.3819 0 6.3786-1.8627 65.982-61.552 33.805-33.853 66.185-66.999 71.955-73.656s18.118-20.696 27.44-31.197 16.949-19.538 16.949-20.083-15.656-14.862-34.79-31.816c-35.246-31.229-146.76-140.38-150.27-147.08-2.4091-4.6032-2.073-12.473 0.78461-18.377 2.8087-5.8019 14.093-16.652 19.798-19.036 4.9899-2.0853 13.882-2.0428 17.938 0.0858 4.3184 2.2659 116.19 114.9 128.15 129.03 5.2053 6.147 11.07 12.839 13.032 14.87s10.457 11.587 18.876 21.235 15.73 17.541 16.246 17.541 4.8328-4.4157 9.5929-9.8126c41.267-46.787 66.528-73.639 116.37-123.7 40.576-40.752 58.894-58.367 61.639-59.273 2.1483-0.70899 6.022-0.93157 8.6082-0.49462 9.4699 1.5999 25.182 14.503 29.285 24.048 2.1851 5.0838 2.0836 12.73-0.23381 17.614-1.0338 2.1786-27.381 29.031-58.578 59.702-63.728 62.653-62.023 61.041-103.98 98.349-16.845 14.98-30.627 27.658-30.627 28.174s2.8394 4.0465 6.3097 7.8453c5.9291 6.4903 10.524 11.913 28.531 33.668 7.8226 9.4513 39.698 42.677 53.926 56.211 12.038 11.45 30.603 31.772 29.779 32.596-0.38218 0.38219-17.983-16.633-39.113-37.812s-39.911-39.472-41.735-40.652-5.1593-5.0262-7.4117-8.5474c-5.0178-7.844-8.278-10.304-12.366-9.331-4.7301 1.1258-6.5975 2.9574-4.3168 4.2338 1.0226 0.57227 1.8593 2.0828 1.8593 3.3568 0 2.9704 7.967 11.838 10.636 11.838 2.3825 0 6.1794 3.8773 8.7357 8.9205 0.99475 1.9625 25.544 27.19 54.554 56.061s55.011 55.097 57.78 58.281 6.9186 7.9288 9.222 10.545l4.188 4.7576 3.564-3.8843c1.9602-2.1364 3.564-4.79 3.564-5.8969s-2.0071-4.1507-4.4603-6.764c-4.1488-4.4196-2.8542-4.1135 2.6762 0.63275 1.4188 1.2177 4.1669 1.9856 6.8097 1.903 8.2502-0.25796 12.466 6.7331 9.2154 15.283-1.7489 4.6-14.797 16.769-19.724 18.395-7.6326 2.519-13.548-2.1755-13.548-10.752 0-4.0064-0.43573-4.4598-75.527-78.595-38.753-38.259-76.774-73.619-101.75-94.627-3.1142-2.6195-53.734 43.523-125.72 114.6-62.314 61.526-63.336 62.611-63.336 67.212 0 3.5832-0.81296 5.4898-3.4767 8.1535-4.1566 4.1566-8.5388 4.4815-14.167 1.0502zm6.9968-11.68c-4.4257-8.0304-14.306-17.209-17.291-16.063-2.4963 0.9579-1.6578 6.7896 1.4881 10.35 5.9399 6.7219 18.952 11.426 15.803 5.7138zm5.2146-12.128c3.0798-3.409 4.1445-5.5042 3.6265-7.1364-0.43188-1.3607-0.17883-2.3106 0.61555-2.3106 2.7313 0 9.5802-6.2495 8.9769-8.1914-0.77375-2.4907 1.0844-5.4306 2.7729-4.387 0.72335 0.44706 3.4672-1.4576 6.1253-4.2517 3.4552-3.6321 4.856-6.1538 4.9604-8.9292 0.15099-4.0163 3.0293-6.3905 4.6224-3.8128 0.66898 1.0824 1.5652 0.96986 3.6633-0.46009 2.9206-1.9905 11.216-9.926 13.827-13.226 0.84351-1.0665 2.5693-1.939 3.835-1.939 1.3541 0 3.0609-1.4687 4.1466-3.5682 1.0149-1.9625 2.5353-3.5682 3.3788-3.5682s10.598-9.4794 21.676-21.065 24.109-24.967 28.956-29.735c8.1185-7.9858 8.7108-8.8965 7.5063-11.54-2.099-4.6067-5.8614-5.0452-9.9208-1.1561-1.918 1.8375-3.2331 4.0032-2.9224 4.8126 0.36441 0.94966-0.11585 1.2105-1.3539 0.73542-1.252-0.48043-1.6284-0.26654-1.0832 0.6156 0.84198 1.3624-8.452 11.056-35.012 36.519-27.967 26.811-52.976 50.399-56.792 53.564-3.1366 2.6014-3.8626 4.0008-3.5682 6.8783 0.31195 3.0495-0.12503 3.7449-2.8041 4.4623-3.296 0.88256-9.2125 4.7171-9.2777 6.013-0.0206 0.4084-1.9107 2.7877-4.2003 5.2874-4.7287 5.1625-4.9351 6.013-2.1945 9.0413 3.001 3.3161 5.6596 2.6411 10.44-2.6507zm396.49 0.59069c3.2904-2.3047 6.5951-8.4947 5.7336-10.74-1.2071-3.1456-4.8754-1.5916-8.7835 3.721-5.4814 7.4512-5.8723 8.8751-2.4364 8.8751 1.5599 0 4.0287-0.83534 5.4864-1.8563zm-251.72-149.52c4.6634-5.5789 6.7752-10.379 4.5665-10.379-1.5957 0-15.448 11.814-15.448 13.175 0 0.85266 2.4219 1.8172 5.3978 2.1497 0.67919 0.0759 3.1471-2.1496 5.4842-4.9456zm24.572-24.007c4.2325-4.0214 4.934-5.1371 2.9043-4.6189-3.8891 0.99281-3.2842-0.18993 1.5582-3.047 2.3289-1.3741 3.8601-1.8927 3.4027-1.1526-0.50651 0.81954-0.18563 1.1259 0.82058 0.78355 0.90878-0.30923 1.4848-1.7172 1.28-3.1288-0.26746-1.8439 0.48601-2.8929 2.6762-3.7256 3.5233-1.3396 3.9759-3.1878 0.96697-3.9486-1.4443-0.36521-0.93957-0.79324 1.6486-1.3982 2.2173-0.51827 4.2454-2.003 5.0008-3.6609 0.69891-1.534 2.6332-3.6817 4.2984-4.7728 3.9429-2.5835 3.8414-4.089-0.27568-4.089-2.0808 0-4.4177 1.2105-6.3142 3.2709-1.656 1.799-7.9214 7.8203-13.923 13.381s-10.695 10.714-10.43 11.452 0.0451 3.2807-0.48927 5.6497c-1.2817 5.6828 0.0504 5.49 6.8758-0.99483zm13.844-47.65c1.6697-2.1891 3.0359-4.3209 3.0359-4.7373 0-1.8958-8.112-12.228-15.293-19.479-10.543-10.646-18.01-19.09-18.01-20.368 0-0.5734-6.0214-7.5708-13.381-15.55s-15.522-16.888-18.138-19.799c-10.012-11.136-106.04-107.07-108.48-108.38-1.414-0.75674-4.8005-1.3759-7.5256-1.3759-4.0489 0-5.694 0.7393-8.9987 4.044-6.3523 6.3523-5.665 9.0904 4.9415 19.687 4.942 4.9376 14.618 14.597 21.502 21.466 74.119 73.957 93.573 93.495 97.806 98.224 6.406 7.1574 10.212 10.101 13.536 10.47 1.4761 0.16397 4.0219 1.0211 5.6573 1.9048s3.1073 1.5162 3.2709 1.4056c1.2621-0.85309 2.8098 0.11394 2.3016 1.4382-0.7415 1.9323 1.3229 4.3078 3.7437 4.3078 0.93724 0 2.754 1.2043 4.0372 2.6762 2.3236 2.6652 2.3229 2.6777-0.15785 3.0562-1.37 0.20904-2.491 0.84324-2.491 1.4093s3.0776 4.5538 6.8391 8.8616c5.5729 6.3822 7.3391 7.7125 9.5396 7.1851 3.4381-0.82399 7.7944 1.4489 6.9574 3.63-0.8299 2.1627 2.4158 5.3801 4.5869 4.547 0.92803-0.35612 3.0535-2.4386 4.7232-4.6277zm38.935-5.0969c1.5442-1.8352 3.7327-3.6917 4.8634-4.1256s2.0556-1.3576 2.0556-2.0529c0-2.1004-3.5222-2.776-6.9149-1.3264-2.7909 1.1924-2.9317 1.158-1.1136-0.27211 1.1448-0.90046 2.0814-2.2472 2.0814-2.9928 0-2.5127-3.3754-1.3808-6.1582 2.0649-1.5193 1.8813-3.9666 4.0411-5.4385 4.7995-3.26 1.6798-3.5704 4.1182-0.39593 3.1106 1.8473-0.58631 2.1597-0.26281 1.6454 1.704-1.0398 3.9761 5.8247 3.3104 9.3752-0.90909zm-71.606-18.696c-0.82749-0.99707-1.7495-1.5679-2.0488-1.2685-0.82484 0.82485 0.85108 3.0814 2.2885 3.0814 0.7887 0 0.69846-0.68245-0.23969-1.8128zm97.646-7.405c0.50057-4.9069 3.2792-8.4936 6.6511-8.5854 0.76436-0.0208 2.5475-1.9111 3.9626-4.2007s2.9834-4.1629 3.4851-4.1629 5.1414-3.7814 10.31-8.4031 10.667-9.019 12.218-9.7717c4.2604-2.0676 94.116-91.911 94.116-94.103 0-1.0478 0.96414-1.9051 2.1425-1.9051 2.1599 0 12.13-9.5268 12.13-11.591 0-1.8926 5.8043-3.8716 11.355-3.8716 4.5604 0 5.2964-0.34157 5.2964-2.4582 0-5.7195-12.936-17.762-19.08-17.762-3.0976 0-4.9253 2.7156-5.2592 7.8137-0.17027 2.6002-4.3422 7.6576-7.786 9.4384-1.9564 1.0117-3.557 2.6117-3.557 3.5556 0 1.0336-0.70659 1.4451-1.7764 1.0345-1.1039-0.42359-2.1171 0.23705-2.6762 1.745-1.1037 2.9769-13.558 16.207-16.218 17.227-1.0605 0.40695-1.9282 1.2444-1.9282 1.8611 0 1.164-9.6938 11.175-16.839 17.389-2.2563 1.9625-5.3147 5.3077-6.7964 7.4338s-3.3023 3.8656-4.0457 3.8656-6.1932 4.96-12.11 11.022-16.841 16.757-24.275 23.766c-8.9042 8.3947-13.288 13.339-12.847 14.489 1.2485 3.2536-2.6452 8.4283-13.505 17.949-17.036 14.934-19.739 17.517-17.607 16.823 1.097-0.35697 2.5441 0.0133 3.2159 0.82273 0.885 1.0664 0.25369 2.3852-2.2918 4.7877-1.9323 1.8238-3.5133 3.7666-3.5133 4.3174 0 1.6367 7.0638 3.0765 7.2274 1.4732zm15.245-21.766c2.1846-1.9953 4.1776-3.4222 4.4288-3.1709 0.56736 0.56735-6.3349 6.7987-7.5307 6.7987-0.47855 0 0.91729-1.6325 3.1018-3.6278zm104.6 237.05c-12.45-12.072-21.883-22.624-21.006-23.501 0.62831-0.62832 31.683 30.238 33.263 33.061 2.2246 3.9752-0.44314 1.8944-12.257-9.5605z" fill="#dcb68a"/>
  <path d="m204.74 656.33c-8.4172-3.7164-21.688-19.045-21.688-25.052 0-1.0576 1.5645-3.4875 3.4767-5.3997 2.5989-2.5989 4.596-3.4767 7.9097-3.4767 4.2764 0 6.6273-2.2158 66.566-62.741 60.104-60.692 116.42-121.57 115.13-124.47-0.32072-0.72247-6.75-6.6659-14.287-13.208-15.115-13.118-14.116-12.236-35.653-31.519-33.004-29.551-132.68-128.22-135.47-134.11-4.7803-10.074 1.487-23.499 14.892-31.902 3.5775-2.2424 6.969-4.077 7.5367-4.077s-0.61984 2.2464-2.639 4.9919c-5.562 7.5631-5.017 9.6067 5.3144 19.929 4.942 4.9376 14.618 14.597 21.502 21.466 46.775 46.673 93.759 93.817 100.09 100.43 4.1101 4.2935 8.2582 7.8064 9.2179 7.8064 2.1276 0 2.3194 1.9886 0.25821 2.6773-0.90627 0.3028 1.0152 3.244 4.9213 7.5329 6.5698 7.2138 10.211 9.6074 11.484 7.5486 0.3967-0.64187 3.2237 1.6503 6.2822 5.0937s6.6588 7.389 8.0006 8.768 2.2606 3.0443 2.0418 3.7006 0.42289 1.8744 1.4259 2.7069c1.2424 1.0311 1.8237 1.088 1.8237 0.17851 0-2.0879 4.5111-1.5643 5.7608 0.66876 0.72931 1.3032 0.66175 2.7398-0.19322 4.1088-0.72304 1.1578-0.89551 2.5241-0.38327 3.0364s3.878-2.2734 7.4796-6.1903 8.2884-8.9949 10.415-11.285 18.811-21.023 37.075-41.629c40.498-45.691 142.15-148.93 148.81-151.13 3.0936-1.021 4.9195-1.0001 7.5422 0.0863 3.436 1.4232 3.448 1.4632 1.6985 5.6503-0.96905 2.3193-1.5031 4.4757-1.1868 4.7921 1.0699 1.0699-4.2766 7.4093-7.7741 9.218-1.9109 0.98819-3.4744 2.569-3.4744 3.5129 0 1.0336-0.70659 1.4451-1.7764 1.0345-1.1039-0.42359-2.1171 0.23705-2.6762 1.745-1.1037 2.9769-13.558 16.207-16.218 17.227-1.0605 0.40695-1.9282 1.2444-1.9282 1.8611 0 1.164-9.6938 11.175-16.839 17.389-2.2563 1.9625-5.3147 5.3077-6.7964 7.4338s-3.3023 3.8656-4.0457 3.8656-6.1932 4.96-12.11 11.022-16.841 16.757-24.275 23.766c-8.9042 8.3947-13.288 13.339-12.847 14.489 1.2485 3.2536-2.6452 8.4283-13.505 17.949-17.036 14.934-19.739 17.517-17.607 16.823 1.097-0.35697 2.5441 0.0133 3.2159 0.82273 0.885 1.0664 0.25369 2.3852-2.2918 4.7877-4.3154 4.0731-4.3782 5.0182-0.39943 6.0168 3.6106 0.9062 3.9211 0.7125 4.6123-2.8769 0.53495-2.7778 3.7395-5.8691 6.1523-5.9348 0.76436-0.0208 2.5475-1.9111 3.9626-4.2007s2.9834-4.1629 3.4851-4.1629 5.1414-3.7814 10.31-8.4031 10.667-9.019 12.218-9.7717c4.2604-2.0676 94.116-91.911 94.116-94.103 0-1.0478 0.96414-1.9051 2.1425-1.9051 2.1599 0 12.13-9.5268 12.13-11.591 0-1.8926 5.8043-3.8716 11.355-3.8716 4.0246 0 5.2964-0.44932 5.2964-1.8713 0-3.2108 3.7594-1.3377 6.1057 3.0422 2.647 4.9412 2.852 10.83 0.53067 15.243-0.92923 1.7665-28.102 29.438-60.383 61.493-42.198 41.901-69.114 67.473-95.77 90.989-20.392 17.99-37.1 33.511-37.129 34.493s5.547 8.0068 12.391 15.612c12.296 13.665 17.557 21.589 12.557 18.913-4.2098-2.253-11.555-1.4529-15.16 1.6516l-3.3372 2.8737 2.9164 3.1083c1.604 1.7096 3.5724 2.8566 4.3741 2.549 1.5367-0.58968 11.465 8.7632 12.126 11.423 0.53725 2.1614 5.1532 7.0108 7.5474 7.929 2.1495 0.82443 105.37 103.2 113.66 112.73 2.7687 3.1827 6.8152 7.8618 8.9923 10.398 3.6667 4.2715 4.1526 4.4906 6.5954 2.9735 1.4504-0.90074 3.7406-3.9124 5.0893-6.6927 1.8778-3.871 3.1238-5.055 5.3196-5.055 4.0375 0 3.6182 1.6483-2.4849 9.7672-6.0084 7.9929-6.4081 9.2633-2.9144 9.2633 4.4273 0 9.5975-3.6216 11.574-8.1075 1.748-3.9668 1.9733-4.1174 2.3826-1.5922 0.72219 4.4557-1.7637 8.8335-9.0228 15.89-7.4741 7.2652-12.955 9.8039-17.464 8.0894-4.1083-1.562-6.9863-6.4572-6.1238-10.416 0.66036-3.0312-3.5847-7.5308-58.44-61.943-53.366-52.935-81.068-79.116-110.63-104.55-8.2681-7.115-10.382-8.4015-12.202-7.4274-1.2108 0.64801-2.5287 1.7077-2.9287 2.3548s-8.0568 7.5224-17.015 15.278-18.161 15.874-20.451 18.041-9.5152 8.6276-16.057 14.358-38.195 36.821-70.34 69.089c-56.685 56.902-58.466 58.828-59.083 63.9-1.0466 8.5969-7.2634 12.405-14.811 9.0732zm3.5744-13.989c-2.1861-3.7818-13.23-15.181-14.707-15.181-1.2014 0-4.6077 3.5125-4.6077 4.7513 0 4.1417 15.031 15.67 19.058 14.616 2.2454-0.58718 2.2542-0.73142 0.2568-4.1869zm6.1772-10.491c3.0798-3.409 4.1445-5.5042 3.6265-7.1364-0.43188-1.3607-0.17883-2.3106 0.61555-2.3106 2.7313 0 9.5802-6.2495 8.9769-8.1914-0.77375-2.4907 1.0844-5.4306 2.7729-4.387 0.72335 0.44706 3.4672-1.4576 6.1253-4.2517 3.4552-3.6321 4.856-6.1538 4.9604-8.9292 0.15099-4.0163 3.0293-6.3905 4.6224-3.8128 0.66898 1.0824 1.5652 0.96986 3.6633-0.46009 2.9206-1.9905 11.216-9.926 13.827-13.226 0.84351-1.0665 2.5693-1.939 3.835-1.939 1.3541 0 3.0609-1.4687 4.1466-3.5682 1.0149-1.9625 2.5353-3.5682 3.3788-3.5682s10.598-9.4794 21.676-21.065 24.071-24.93 28.872-29.653c7.267-7.1492 8.6024-9.0498 7.9717-11.346-0.65414-2.3813-0.57718-2.4699 0.56321-0.64886 1.2497 1.9957 1.5114 1.9736 4.8588-0.40996 2.5471-1.8137 3.3365-3.1539 2.8187-4.7854-0.70625-2.2252 1.2419-3.3353 2.0181-1.1499 0.21805 0.61396 2.2172-0.37524 4.4426-2.1982l4.0462-3.3145-2.5594-2.5594c-1.7061-1.7061-2.5615-4.0465-2.5656-7.0197l-6e-3 -4.4603-13.711 14.204c-7.5413 7.8122-13.453 14.877-13.138 15.699 0.37372 0.97386-0.0952 1.2384-1.3449 0.75881-1.2932-0.49623-1.6334-0.27464-1.0435 0.67971 1.2696 2.0542-55.812 57.864-59.183 57.864-0.75186 0-1.367 0.65956-1.367 1.4657 0 1.4394-14.713 15.987-28.313 27.996-5.8848 5.1959-6.8506 6.6191-6.5417 9.6399 0.30398 2.9732-0.14888 3.6809-2.8113 4.3938-3.296 0.88256-9.2125 4.7171-9.2777 6.013-0.0205 0.4084-1.9107 2.7877-4.2003 5.2874-4.7287 5.1625-4.9351 6.013-2.1945 9.0413 3.001 3.3161 5.6596 2.6411 10.44-2.6507zm116.64-131.96c0.4043-0.65417 1.5064-1.1894 2.449-1.1894s1.7139 0.53524 1.7139 1.1894-1.102 1.1894-2.449 1.1894-2.1182-0.53523-1.7139-1.1894zm28.073-16.949c2.3069-2.7802 4.5994-6.1254 5.0944-7.4338 0.83394-2.2041 1.0093-2.2305 2.3873-0.35984 1.3922 1.8899 1.724 1.875 5.1914-0.2337 4.043-2.4587 6.765-6.507 5.6203-8.359-0.3985-0.64476 2.1191-3.8142 5.5946-7.0432 4.5734-4.249 5.5798-5.6873 3.643-5.2061-3.8825 0.96454-3.2872-0.20649 1.5582-3.0654 2.3289-1.3741 3.8601-1.8927 3.4027-1.1526-0.50651 0.81954-0.18563 1.1259 0.82058 0.78355 0.90878-0.30923 1.4848-1.7172 1.28-3.1288-0.26746-1.8439 0.48601-2.8929 2.6762-3.7256 3.5233-1.3396 3.9759-3.1878 0.96697-3.9486-1.4443-0.36521-0.93957-0.79324 1.6486-1.3982 2.2173-0.51827 4.2454-2.003 5.0008-3.6609 0.69891-1.534 2.6332-3.6817 4.2984-4.7728 3.9429-2.5835 3.8414-4.089-0.27568-4.089-2.0779 0-4.4246 1.2134-6.3261 3.2709-1.6625 1.799-7.803 7.752-13.646 13.229s-10.678 10.829-10.744 11.894-0.20049 3.4393-0.29735 5.2769c-0.25215 4.784-2.5549 2.7268-2.5549-2.2824v-4.1532l-4.0828 3.1141c-2.2456 1.7128-5.5435 5.0291-7.3287 7.3697-3.0468 3.9945-3.1169 4.3498-1.1436 5.7927 2.2644 1.6558 2.1626 1.7785-9.7462 11.745-4.3742 3.6608-4.7844 4.988-1.7841 5.7721 4.022 1.0511 4.586 0.77791 8.7456-4.2351zm62.363-55.147c1.6124-1.0565 2.9317-2.9196 2.9317-4.1403 0-1.4388 1.1504-2.4942 3.2709-3.0007 6.8999-1.6483 8.4653-6.1113 2.9735-8.4776-1.799-0.77516-5.081-2.4688-7.2934-3.7636l-4.0225-2.3542-5.1028 3.8963c-5.065 3.8674-11.235 10.449-11.235 11.984 0 0.44028 1.0753 0.45922 2.3895 0.0421 1.7096-0.54259 3.8011 0.44993 7.3505 3.4881 2.7286 2.3356 5.1511 4.2464 5.3835 4.2464s1.7417-0.8644 3.3541-1.9209zm-7.773-12.282c0-0.69278 0.53523-1.2596 1.1894-1.2596s1.1894 0.23602 1.1894 0.5245-0.53523 0.8553-1.1894 1.2596-1.1894 0.16828-1.1894-0.5245zm22.816-9.354c1.5442-1.8352 3.7327-3.6917 4.8634-4.1256s2.0556-1.3576 2.0556-2.0529c0-2.1004-3.5222-2.776-6.9149-1.3264-2.7909 1.1924-2.9317 1.158-1.1136-0.27211 1.1448-0.90046 2.0814-2.2472 2.0814-2.9928 0-2.5127-3.3754-1.3808-6.1582 2.0649-1.5193 1.8813-3.9666 4.0411-5.4385 4.7995-3.26 1.6798-3.5704 4.1182-0.39593 3.1106 1.8473-0.58631 2.1597-0.26281 1.6454 1.704-1.0398 3.9761 5.8247 3.3104 9.3752-0.90909zm14.055-7.9146c0-0.95491 2.1409-3.717 4.7576-6.1381s4.7576-4.7548 4.7576-5.186-1.6057-2.5826-3.5682-4.7808-3.5682-4.4167-3.5682-4.93-1.1102-1.5275-2.467-2.2537c-2.1549-1.1533-3.3213-0.51895-9.2179 5.0128-7.7894 7.3074-9.659 10.497-6.1534 10.497 1.2677 0 3.5252 1.6662 5.0166 3.7026 3.7625 5.1372 10.443 7.745 10.443 4.0765zm-62.001-9.8605c-1.4795-1.8865-1.4374-1.9285 0.44907-0.44907 1.1448 0.89782 2.0814 1.8345 2.0814 2.0815 0 0.97892-0.97672 0.34886-2.5305-1.6324zm89.231-30.092c2.1846-1.9953 4.1776-3.4222 4.4288-3.1709 0.56736 0.56735-6.3349 6.7987-7.5307 6.7987-0.47855 0 0.91729-1.6325 3.1018-3.6278zm-117.78-0.83246c-1.4795-1.8865-1.4374-1.9285 0.44907-0.44907 1.1448 0.89782 2.0815 1.8345 2.0815 2.0814 0 0.97893-0.97673 0.34887-2.5305-1.6324zm-17.7-18.746c-0.80839-0.97405-1.0711-1.771-0.58383-1.771s0.20951-0.81509-0.6173-1.8113c-1.2595-1.5176-1.1813-1.6878 0.48212-1.0495 2.4775 0.95071 4.6852 4.86 3.2467 5.749-0.58183 0.35958-1.7193-0.14316-2.5277-1.1172zm-10.538-11.693c-0.7286-0.8779-0.97719-1.9437-0.55242-2.3685 0.89263-0.89264 3.9647 1.3706 3.9647 2.9209 0 1.5659-1.9109 1.2566-3.4122-0.55242zm-23.349-23.381c-1.8802-1.9625-2.9853-3.5682-2.4557-3.5682 1.7431 0-2.1449-3.7935-5.0008-4.8793-1.5888-0.60408-2.4475-1.6282-1.9882-2.3713 0.98249-1.5897 13.211 10.132 13.211 12.664 0 2.2061 0.21632 2.312-3.7664-1.8451zm-14.868-14.868c-0.81437-0.98126-1.0646-1.7841-0.556-1.7841s-0.0835-1.2043-1.3158-2.6762-0.24475-0.83167 2.1945 1.4227 4.4349 4.2615 4.4349 4.4603c0 1.1346-3.5051 0.0865-4.7576-1.4227zm-13.107-14.302c-2.2984-2.7694-0.6584-3.2913 1.8014-0.57325 1.1877 1.3124 1.6068 2.3861 0.93128 2.3861s-1.9051-0.81578-2.7326-1.8128zm-11.08-9.8806c-2.424-2.4824-4.0395-4.8811-3.59-5.3305s8e-3 -0.81713-0.98086-0.81713-2.7668-1.0705-3.9508-2.3788-1.7367-2.3788-1.2281-2.3788 0.26327-0.79695-0.54513-1.771-1.8666-1.5258-2.3516-1.2261-2.0703-0.72017-3.5229-2.2664c-1.5984-1.7014-2.1588-3.1095-1.4193-3.5665 1.1342-0.70098 22.367 20.108 22.764 22.31 0.42978 2.3805-1.0615 1.6387-5.1757-2.5747z" fill="#edb575"/>
  <path d="m204.74 656.33c-8.4172-3.7164-21.688-19.045-21.688-25.052 0-1.0576 1.5645-3.4875 3.4767-5.3997 2.5989-2.5989 4.596-3.4767 7.9097-3.4767 4.2764 0 6.6273-2.2158 66.566-62.741 60.104-60.692 116.42-121.57 115.13-124.47-0.32072-0.72247-6.75-6.6659-14.287-13.208-15.115-13.118-14.116-12.236-35.653-31.519-33.004-29.551-132.68-128.22-135.47-134.11-4.7803-10.074 1.487-23.499 14.892-31.902 3.5775-2.2424 6.9908-4.077 7.5852-4.077s-1.0675 2.3306-3.6932 5.1792c-5.849 6.3455-7.0014 9.5356-4.7021 13.017 3.6684 5.5552 148.89 150.14 154.34 153.67 1.0156 0.65666 5.2654 4.8068 9.4442 9.2224s8.2541 8.0285 9.0564 8.0285 1.6371 0.47047 1.8552 1.0455 2.4804 3.3378 5.0275 6.1395l4.6311 5.094 6.4618-7.0316c3.554-3.8674 8.2019-8.9049 10.329-11.194s18.811-21.023 37.075-41.629c22.83-25.757 50.635-55.017 88.967-93.623 56.467-56.871 60.009-59.978 66.142-58.032 2.792 0.88616 3.223 2.9794 0.61337 2.9794-1.0931 0-1.7841 1.1119-1.7841 2.871 0 2.1945-7.8654 10.532-33.383 35.385-18.361 17.883-37.211 36.528-41.89 41.434s-14.813 15.252-22.519 22.99-14.012 14.695-14.012 15.46-4.148 5.4466-9.2179 10.405-13.767 14.523-19.328 21.255-12.813 14.719-16.117 17.749-6.3678 6.4538-6.8086 7.6084-2.0504 2.5741-3.5768 3.1545-4.8277 4.3286-7.3362 8.3296-6.6445 8.8067-9.191 10.679-6.5562 5.8772-8.9103 8.8989-4.6978 5.4939-5.2082 5.4939-6.1536 6.0214-12.54 13.381-14.335 16.057-17.663 19.328-11.128 11.541-17.333 18.378-14.485 15.401-18.399 19.03c-8.3244 7.7187-34.886 34.393-57.706 57.95-8.8313 9.1168-25.003 25.029-35.936 35.36s-20.183 19.668-20.554 20.749-2.4918 3.3394-4.7129 5.0185c-3.987 3.0141-11.536 11.42-13.654 15.205-0.97681 1.7455-1.3844 1.6707-3.9305-0.72127-3.3266-3.1252-4.8268-3.3226-6.8374-0.90003-4.5513 5.4839 10.698 22.28 18.46 20.332 3.4256-0.85976 3.7228-2.6094 0.96171-5.6604-1.0863-1.2003-1.7553-2.3398-1.4868-2.5322 4.6352-3.3202 10.067-8.7982 19.26-19.422 10.192-11.779 28.919-30.082 35.485-34.681 3.6465-2.5541 15.555-14.615 32.913-33.334 8.0387-8.6692 19.473-20.426 25.409-26.126s11.726-11.85 12.866-13.667 5.4954-6.2687 9.6786-9.8938 7.6065-7.4905 7.6074-8.5897 0.80374-1.9993 1.7841-2.0002c3.15-2e-3 7.8338-4.026 11.783-10.121 2.116-3.2656 4.3474-5.9374 4.9586-5.9374 0.99964 0 10.959-9.0217 24.291-22.004 2.6871-2.6167 10.611-10.247 17.608-16.956s12.722-12.983 12.722-13.941c0-0.97152 1.7107-2.1781 3.8656-2.7264 2.2072-0.56165 4.3713-2.1117 5.0443-3.6131 0.64832-1.4462 2.007-2.8923 3.0192-3.2136 2.166-0.68746 10.67-10.576 10.67-12.407 0-0.69313 0.80285-1.2602 1.7841-1.2602s1.7841-0.78128 1.7841-1.7362c0-2.0303 8.4431-10.214 12.321-11.942 1.4679-0.65417 4.8938-3.3303 7.6133-5.947s11.186-10.378 18.815-17.246c11.361-10.229 97.625-94.832 121.11-118.78 4.5869-4.677 7.3203-6.5009 10.255-6.8425 4.4411-0.51709 6.2149-2.3386 5.4355-5.5818-0.82526-3.4337 1.8494-1.6761 4.244 2.7889 2.6179 4.8814 2.812 10.782 0.49916 15.179-0.92923 1.7665-28.102 29.438-60.383 61.493-42.198 41.901-69.114 67.473-95.77 90.989-20.392 17.99-37.1 33.511-37.129 34.493s5.547 8.0068 12.391 15.612c12.296 13.665 17.557 21.589 12.557 18.913-4.2742-2.2874-11.559-1.4556-15.16 1.7311l-3.3372 2.9533 8.7104 8.0487c4.7907 4.4268 11.749 11.214 15.462 15.083s23.59 23.672 44.171 44.008 40.023 39.65 43.205 42.921c16.615 17.078 32.823 33.919 36.402 37.823 2.2179 2.4203 4.7603 4.4005 5.6497 4.4005 2.3422 0 6.3199-4.336 8.279-9.0248 1.2852-3.0758 2.412-4.0587 4.6534-4.0587 1.6266 0 2.9576 0.56526 2.9576 1.2561s-2.6762 4.5636-5.947 8.606c-6.6524 8.2216-7.5351 11.547-3.0648 11.547 3.8044 0 10.06-5.3776 12.387-10.649 1.7048-3.8612 1.9008-3.9822 2.3146-1.4294 0.72219 4.4557-1.7637 8.8335-9.0228 15.89-7.4741 7.2652-12.955 9.8039-17.464 8.0894-4.1083-1.562-6.9863-6.4572-6.1238-10.416 0.66036-3.0312-3.5847-7.5308-58.44-61.943-53.366-52.935-81.068-79.116-110.63-104.55-8.2681-7.115-10.382-8.4015-12.202-7.4274-1.2108 0.64801-2.5287 1.7077-2.9287 2.3548s-8.0568 7.5224-17.015 15.278-18.161 15.874-20.451 18.041-9.5152 8.6276-16.057 14.358-38.195 36.821-70.34 69.089c-56.685 56.902-58.466 58.828-59.083 63.9-1.0466 8.5969-7.2634 12.405-14.811 9.0732zm183.93-267.94c-1.4795-1.8865-1.4374-1.9285 0.44907-0.44907 1.1448 0.89782 2.0814 1.8345 2.0814 2.0815 0 0.97892-0.97672 0.34886-2.5305-1.6324zm-44.451-49.973c-0.65417-0.48061-1.9342-1.8228-2.8444-2.9825-1.4543-1.853-1.4143-2.0163 0.3304-1.3468 1.092 0.41902 2.5246 1.7694 3.1836 3.0007 1.2971 2.4237 1.1684 2.679-0.66959 1.3286zm-11.342-12.369c-1.362-2.6558-1.3301-2.6877 0.72488-0.72489 1.1823 1.1292 1.8234 2.3793 1.4247 2.778s-1.366-0.52523-2.1496-2.0531zm-27.664-27.334c-7.7247-8.2148-6.467-8.5294 1.5688-0.39245 3.5373 3.5818 5.9145 6.4999 5.2826 6.4847s-3.715-2.7567-6.8515-6.0922zm-12.189-12.613-3.306-4.4603 4.3543 4.0989c4.6377 4.3657 4.9503 4.8216 3.306 4.8216-0.57653 0-2.536-2.0071-4.3542-4.4603zm-11.957-12.489-2.2658-2.6762 2.6762 2.2658c1.4719 1.2462 2.6762 2.4505 2.6762 2.6762 0 0.95183-0.95723 0.24913-3.0865-2.2658zm-18.029-17.189c-6.0529-6.2971-10.785-11.669-10.517-11.938s5.4888 4.6791 11.6 10.995 11.334 11.709 11.607 11.983 5e-3 0.47869-0.5947 0.45399-6.0427-5.1971-12.096-11.494z" fill="#d7a670"/>
  <path d="m204.74 656.33c-8.4172-3.7164-21.688-19.045-21.688-25.052 0-1.0576 1.5645-3.4875 3.4767-5.3997 2.5989-2.5989 4.596-3.4767 7.9097-3.4767 4.2764 0 6.6273-2.2158 66.566-62.741 60.104-60.692 116.42-121.57 115.13-124.47-0.32072-0.72247-6.75-6.6659-14.287-13.208-15.115-13.118-14.116-12.236-35.653-31.519-33.004-29.551-132.68-128.22-135.47-134.11-3.2436-6.8354-1.8673-14.404 4.0029-22.013 2.6914-3.4886 7.0326-7.5452 9.6471-9.0146l4.7536-2.6717-4.1106 6.1083c-3.0924 4.5952-3.9359 6.8909-3.4053 9.2676 0.44032 1.9724 7.029 9.346 17.538 19.628 19.242 18.825 52.768 52.126 66.788 66.339 8.6859 8.8055 70.884 69.598 92.127 90.045 6.326 6.089 9.4779 8.3432 10.993 7.8623 1.1683-0.37081 5.0821-4.2522 8.6972-8.6253s7.8207-9.2892 9.3458-10.925 17.705-19.833 35.954-40.44c40.026-45.194 142.1-148.92 148.69-151.1 6.1429-2.0273 6.955-0.39478 2.5794 5.1858-6.2946 8.0281-47.143 49.276-96.968 97.915-7.3594 7.1843-13.381 13.65-13.381 14.368 0 1.2811-13.043 15.91-21.499 24.113-2.3602 2.2896-7.2213 7.6419-10.802 11.894s-9.4195 10.724-12.974 14.381c-8.9616 9.221-24.44 25.718-30.846 32.876-12.672 14.16-48.066 52.894-66.043 72.278-6.0674 6.5417-38.71 39.713-72.54 73.713s-63.331 63.949-65.559 66.551l-4.0509 4.7326-3.5993-2.1262c-2.8558-1.687-3.9565-1.8298-5.3282-0.69129-4.6496 3.8588-0.0453 13.503 9.5124 19.926 4.6805 3.145 6.5447 3.7606 9.4836 3.1319 2.0119-0.4304 3.8578-0.96456 4.1022-1.187 0.52225-0.47543-0.47806-2.728-2.3697-5.3363-1.11-1.5305 0.60883-3.9245 9.805-13.657 6.133-6.4907 17.297-17.698 24.81-24.906 17.882-17.156 32.077-31.368 55.326-55.392 10.467-10.815 22.777-23.219 27.356-27.565s12.608-12.242 17.841-17.549 14.98-14.485 21.658-20.397 12.428-11.64 12.776-12.729 3.165-4.1222 6.2592-6.7389 11.947-10.901 19.673-18.41 14.967-14.145 16.091-14.747 5.7898-4.9447 10.369-9.6507 12.072-11.785 16.652-15.732 11.27-10.249 14.868-14.005c17.109-17.861 35.545-35.738 39.845-38.635 2.6167-1.7634 29.102-27.452 58.857-57.087 40.388-40.224 55.385-54.432 59.173-56.055 3.8239-1.6391 5.0734-2.8338 5.0734-4.8507 0-2.4607 0.15413-2.5218 1.9164-0.75956 2.7846 2.7846 3.504 11.715 1.2842 15.94-1.0021 1.9074-28.234 29.694-60.516 61.749-42.198 41.901-69.114 67.473-95.77 90.989-20.392 17.99-37.096 33.511-37.119 34.493s5.8318 8.3459 13.012 16.366 13.055 15.038 13.055 15.595-2.81 0.975-6.2444 0.92814c-6.4998-0.0887-13.975 3.0984-13.975 5.9581 0 0.80452 22.078 23.301 49.063 49.993 59.35 58.706 92.839 92.349 98.423 98.879 2.2896 2.6772 4.9994 4.8894 6.0218 4.916 2.5667 0.0667 7.9142-5.7669 9.5267-10.393 1.0047-2.882 2.044-3.8318 4.1929-3.8318 1.5714 0 2.8572 0.27518 2.8572 0.61151s-2.4004 3.5585-5.3342 7.1605c-5.9837 7.3464-9.2148 12.965-8.0982 14.081 3.1305 3.1305 13.012-2.2889 16.645-9.1286 1.4938-2.8126 2.1322-3.2824 2.4494-1.8025 0.67094 3.1303-2.5409 8.1659-9.4356 14.794-7.0855 6.8111-12.606 9.2737-17.023 7.5942-4.1083-1.562-6.9863-6.4572-6.1238-10.416 0.66036-3.0312-3.5847-7.5308-58.44-61.943-53.366-52.935-81.068-79.116-110.63-104.55-8.2681-7.115-10.382-8.4015-12.202-7.4274-1.2108 0.64801-2.5287 1.7077-2.9287 2.3548s-8.0568 7.5224-17.015 15.278-18.161 15.874-20.451 18.041-9.5152 8.6276-16.057 14.358-38.195 36.821-70.34 69.089c-56.685 56.902-58.466 58.828-59.083 63.9-1.0466 8.5969-7.2634 12.405-14.811 9.0732z" fill="#aaa299"/>
  <path d="m202.02 653.53c-6.3358-4.036-13.547-11.815-16.295-17.579-1.7964-3.767-1.8178-4.5124-0.21225-7.373 0.98239-1.7502 2.8382-3.3718 4.1241-3.6035 1.8903-0.34056 2.0532-0.12582 0.85117 1.1215-4.1785 4.3358 0.33463 13.519 9.7545 19.849 4.6805 3.145 6.5447 3.7606 9.4836 3.1319 4.7245-1.0107 5.0582-1.3969 3.3109-3.8326-0.79875-1.1134-1.7485-2.6276-2.1105-3.365-0.75664-1.5409 15.277-18.826 35.147-37.889 17.882-17.156 32.077-31.368 55.326-55.392 10.467-10.815 22.777-23.219 27.356-27.565s12.608-12.242 17.841-17.549 14.98-14.485 21.658-20.397 12.428-11.64 12.776-12.729 3.165-4.1222 6.2592-6.7389 11.947-10.901 19.673-18.41 14.967-14.145 16.091-14.747 5.7898-4.9447 10.369-9.6507 12.072-11.785 16.652-15.732 11.27-10.249 14.868-14.005c17.109-17.861 35.545-35.738 39.845-38.635 2.6167-1.7634 29.102-27.452 58.857-57.087 40.388-40.224 55.385-54.432 59.173-56.055 3.8102-1.6332 5.0734-2.8368 5.0734-4.8337 0-4.8857 2.408-0.50404 3.1456 5.7238 0.4934 4.1661 0.16242 6.9812-1.108 9.4242-2.7011 5.1939-108.77 110.05-133.47 131.95-50.069 44.383-61.254 54.468-61.254 55.228 0 0.44197 6.1552 7.7118 13.678 16.155s13.678 15.669 13.678 16.057-2.5531 0.70573-5.6736 0.70573c-5.9279 0-13.357 3.3379-13.357 6.0013 0 0.80452 22.078 23.301 49.063 49.993 59.35 58.706 92.839 92.349 98.423 98.879 2.2896 2.6772 4.9994 4.8894 6.0218 4.916 2.3857 0.062 7.7382-5.5365 9.3353-9.7643 0.90047-2.3837 2.0539-3.2709 4.2523-3.2709 2.9477 0 2.8944 0.15003-2.3313 6.5658-5.9962 7.3616-9.2293 12.981-8.1119 14.098 0.41002 0.41002 2.2394 0.7455 4.0654 0.7455 3.3027 0 10.54-5.9362 13.776-11.299 1.1803-1.9563 1.2161-1.7026 0.20136 1.4284-1.5117 4.6643-9.2256 13.612-14.598 16.932-8.2643 5.1076-16.523 1.6976-15.965-6.5916 0.27565-4.0929-1.4875-5.9821-59.138-63.365-32.682-32.531-67.451-66.348-77.263-75.149-31.495-28.249-42.247-37.392-43.975-37.392-0.9289 0-16.035 12.682-33.57 28.183-38.695 34.208-156.98 151.77-155.8 154.85 1.1504 2.9978-1.4458 8.6208-4.6555 10.083-4.2571 1.9397-5.3468 1.7445-11.249-2.0151zm-7.0719-27.556-2.9735-2.3259 3.3196-0.0264c2.7457-0.0219 8.7092-5.4398 34.493-31.337 71.298-71.612 107.76-108.87 113.31-115.75 3.2349-4.0187 12.438-14.456 20.452-23.193s14.57-16.508 14.57-17.269-5.7537-6.4537-12.786-12.652-23.205-20.495-35.94-31.772c-27.483-24.336-134.5-129.76-137.27-135.22-4.3834-8.6501-1.4711-17.354 9.1758-27.423 3.6266-3.4299 6.8574-6.2362 7.1794-6.2362s-1.2492 2.7264-3.4917 6.0586c-3.0634 4.5523-3.9018 6.8441-3.3718 9.2179 0.44032 1.9724 7.029 9.346 17.538 19.628 19.242 18.825 52.768 52.126 66.788 66.339 8.6859 8.8055 70.884 69.598 92.127 90.045 6.1844 5.9526 9.4944 8.338 10.935 7.8806 1.1366-0.36075 4.9065-3.9581 8.3775-7.9942s8.4721-9.4956 11.114-12.132c6.4769-6.4653 25.835-27.718 29.284-32.15 16.53-21.243 145.94-154.27 152.9-157.18 7.0978-2.9656 8.0514-2.0787 3.7129 3.4536-6.3642 8.1153-47.013 49.169-97.038 98.003-7.3594 7.1843-13.381 13.65-13.381 14.368 0 1.2811-13.043 15.91-21.499 24.113-2.3602 2.2896-7.2213 7.6419-10.802 11.894s-9.4195 10.724-12.974 14.381c-8.9616 9.221-24.44 25.718-30.846 32.876-12.765 14.264-48.255 53.102-66.048 72.278-6.0697 6.5417-39.524 40.529-74.344 75.527s-64.102 64.837-65.073 66.309c-2.1508 3.2601-3.5784 3.3172-7.439 0.29735z" fill="#c96"/>
  <path d="m202.02 653.53c-6.3358-4.036-13.547-11.815-16.295-17.579-1.7796-3.7318-1.8073-4.5296-0.25313-7.286 2.4384-4.3247 5.2694-5.2012 3.3758-1.0453-1.1794 2.5885-0.94846 3.9058 1.5285 8.719 4.061 7.8912 11.568 13.423 18.215 13.423 5.8512 0 7.3619-1.9177 4.608-5.8494-1.704-2.4328-1.3177-3.0568 8.1182-13.115 5.449-5.8084 16.836-17.165 25.304-25.236s22.095-21.633 30.282-30.137 21.03-21.35 28.541-28.546 20.378-19.971 28.593-28.389 24.564-24.208 36.331-35.087 27.572-25.669 35.123-32.865 19.545-18.436 26.654-24.977 17.069-15.908 22.135-20.815 14.466-13.738 20.89-19.625c23.279-21.335 29.644-27.341 31.17-29.411 0.85481-1.1593 2.1929-2.1223 2.9735-2.1399s26.04-24.707 56.132-54.865c30.494-30.561 56.362-55.537 58.439-56.422 2.4078-1.0269 4.034-2.7612 4.5966-4.9022 0.79822-3.0379 0.95111-3.1156 1.8401-0.93441 1.5323 3.7597 1.2866 9.94-0.53439 13.44-2.5968 4.991-109.34 110.42-133.33 131.67-50.069 44.383-61.254 54.468-61.254 55.228 0 0.44197 6.1552 7.7118 13.678 16.155s13.678 15.638 13.679 15.989-3.3473 0.58641-7.439 0.52441l-7.4394-0.11276-10.994-11.099-10.994-11.099-2.8432 2.671-2.8432 2.671 2.9811 3.1885c1.6396 1.7537 4.9005 5.5181 7.2465 8.3654s5.412 5.6128 6.8134 6.1456 3.5036 2.9826 4.6716 5.444 7.0038 9.2331 12.968 15.048c22.37 21.809 72.575 71.833 130.07 129.6l10.993 11.045 3.5771-2.0261c4.1337-2.3414 4.4827-1.5781 1.1983 2.6208-1.2792 1.6354-2.3378 3.927-2.3524 5.0923-0.0684 5.4831 8.4298 3.1126 15.927-4.4424 4.1299-4.1621 4.4787-4.3303 2.5797-1.2445-3.1419 5.1054-6.5626 8.7503-11.872 12.65-8.6104 6.3241-17.754 3.3177-17.151-5.6391 0.27565-4.0929-1.4875-5.9821-59.138-63.365-32.682-32.531-67.451-66.348-77.263-75.149-31.495-28.249-42.247-37.392-43.975-37.392-0.9289 0-16.035 12.682-33.57 28.183-38.695 34.208-156.98 151.77-155.8 154.85 1.1504 2.9978-1.4458 8.6208-4.6555 10.083-4.2571 1.9397-5.3468 1.7445-11.249-2.0151zm-5.8825-28.151c-1.2152-1.4643-1.126-1.7841 0.4978-1.7841 1.0882 0 16.006-14.09 33.152-31.311 71.298-71.612 107.76-108.87 113.31-115.75 3.2349-4.0187 12.438-14.456 20.452-23.193s14.57-16.508 14.57-17.269-5.7537-6.4537-12.786-12.652-23.205-20.495-35.94-31.772c-27.483-24.336-134.5-129.76-137.27-135.22-4.1084-8.1075-1.4784-17.198 7.4855-25.873 5.3921-5.2181 6.0311-5.0104 2.484 0.80734-5.3035 8.6985-7.2152 6.2755 48.588 61.58 87.523 86.742 133.38 130.83 136.08 130.83 0.94593 0 4.5563-3.0776 8.023-6.8391s9.0305-9.784 12.364-13.383c16.687-18.018 28.13-30.68 30.632-33.895 10.063-12.932 41.117-45.884 91.245-96.822 53.34-54.201 63.932-63.996 66.467-61.461 0.59951 0.5995-67.246 69.586-97.177 98.812-7.3696 7.1959-15.885 16.111-18.923 19.811-5.3732 6.5435-23.743 26.907-73.882 81.902-13.429 14.729-28.162 31.028-32.742 36.22s-12.072 13.493-16.652 18.446-12.307 13.386-17.174 18.741c-10.535 11.591-139.7 141.86-140.66 141.86-0.36511 0-1.3301-0.80284-2.1445-1.7841zm410.79-4.6697c0.92225-2.9466 2.0347-4.2508 3.6256-4.2508 2.1289 0 2.0876 0.23689-0.57057 3.2709-1.5761 1.799-3.2076 3.7119-3.6256 4.2508s-0.1612-0.93289 0.57057-3.2709z" fill="#af8960"/>
  <path d="m205.06 655.25c-4.8187-2.1073-17.214-14.663-19.236-19.486-1.3051-3.1116-1.3412-4.4242-0.17978-6.5417 1.3717-2.5008 1.5034-2.3628 2.3545 2.467 1.0428 5.9173 6.3932 13.235 12.385 16.938 8.5144 5.2622 18.307 2.2333 14.005-4.3319-1.8257-2.7864-1.2249-3.4295 62.375-66.764 35.32-35.173 71.851-70.909 81.181-79.413s20.495-19.022 24.813-23.373 12.07-11.461 17.226-15.799 10.385-9.1726 11.619-10.742 7.1847-6.833 13.223-11.698 13.882-12.191 17.429-16.28 7.9413-8.3425 9.764-9.451c3.3421-2.0324 14.564-12.503 20.063-18.72 3.7895-4.2844 32.301-30.966 36.56-34.213 3.5696-2.7217 71.483-69.596 95.915-94.447 17.034-17.326 25.348-23.935 26.46-21.035 2.0583 5.3639-2.0862 10.045-57.02 64.408-54.074 53.512-65.199 63.967-114.16 107.28-13.545 11.982-24.627 22.253-24.627 22.824s5.8875 7.6229 13.083 15.67 13.083 15.095 13.083 15.663c0 3.316-7.4623-2.0547-18.254-13.137l-12.356-12.689-6.0889 4.4696c-3.3489 2.4583-7.212 5.8975-8.5848 7.6426l-2.4959 3.173 2.6977 1.7922c2.4281 1.6131 9.8544 8.876 24.077 23.547 2.721 2.8068 6.553 5.9455 8.5155 6.9748 4.5414 2.382 10.11 7.5654 10.11 9.4107 0 0.78027 3.0776 3.7003 6.8391 6.489s29.683 27.875 57.603 55.748 51.738 51.608 52.928 52.745 5.6436 5.541 9.8957 9.7863 8.6168 7.7305 9.6994 7.7449c1.6057 0.0214 1.8513 0.89879 1.3331 4.7622-0.81221 6.0554 1.2639 7.0254 7.8478 3.6665 5.8375-2.9781 5.4558-0.89099-0.693 3.7889-8.1189 6.1794-18.013 2.8525-16.642-5.5958 0.60402-3.7222-1.2628-5.7233-60.228-64.561-58.392-58.266-116.36-112.12-120.69-112.12-1.0004 0-5.3592 3.3452-9.6863 7.4338-8.7122 8.2319-21.566 19.705-36.926 32.959-5.5605 4.7981-39.949 38.482-76.419 74.854-62.3 62.131-66.31 66.382-66.327 70.297-0.0211 4.8342-0.79011 6.2707-4.3638 8.1518-3.1904 1.6793-3.6496 1.6631-8.1067-0.28609zm-7.7311-30.38c0-0.61009 1.071-1.4492 2.3801-1.8647s2.9336-1.7896 3.61-3.0536 1.8514-2.2983 2.6109-2.2983-0.43481 1.8733-2.654 4.1629c-4.0323 4.1603-5.947 5.1434-5.947 3.0537zm44.603-44.088c1.184-1.3083 2.4204-2.3788 2.7475-2.3788s-0.37405 1.0705-1.5581 2.3788-2.4204 2.3788-2.7475 2.3788 0.37406-1.0705 1.5581-2.3788zm4.1629-3.9103c0-0.18814 2.7818-2.9981 6.1819-6.2444s5.4072-4.8318 4.4603-3.5235c-2.7353 3.7795-10.642 11.037-10.642 9.7679zm98.747-101.35c2.903-4.0847 11.061-13.033 12.9-14.149 2.9603-1.7969-2.7914 5.4219-8.9044 11.176-3.1276 2.9438-4.9258 4.2818-3.996 2.9735zm20.788-23.193c1.184-1.3083 2.4204-2.3788 2.7475-2.3788s-0.37405 1.0705-1.5581 2.3788-2.4204 2.3788-2.7475 2.3788 0.37406-1.0705 1.5581-2.3788zm9.5152-10.705c1.184-1.3083 2.4204-2.3788 2.7475-2.3788s-0.37405 1.0705-1.5581 2.3788-2.4204 2.3788-2.7475 2.3788 0.37406-1.0705 1.5581-2.3788zm2.9735-5.911c0-0.63434-5.0307-5.5852-11.179-11.002l-34.79-30.65c-26.078-22.975-135-129.78-139.34-136.63-3.6043-5.6884-3.0621-13.624 1.3907-20.353 3.7614-5.6838 5.9245-6.3228 4.1475-1.2252-2.4169 6.933 0.79287 12.31 17.063 28.583 30.689 30.695 108.84 107.85 114.84 113.39 3.4344 3.1653 6.2444 6.4616 6.2444 7.325 0 2.1751 15.071 16.471 18.302 17.361 3.1929 0.87972 15.001 11.543 15.001 13.547 0 0.78638 2.7754 3.9863 6.1675 7.111l6.1675 5.6812 4.0142-2.1618c2.2078-1.189 8.6404-7.5462 14.295-14.127 16.598-19.318 27.939-31.685 28.523-31.101 1.0079 1.0079-6.1173 9.5325-21.087 25.229-8.1872 8.5845-17.562 18.86-20.833 22.834-5.4778 6.6554-8.9205 9.047-8.9205 6.1968zm52.995-57.087c0.5425-0.95891 10.328-12.466 21.746-25.572 22.188-25.468 135.71-140.44 137.89-139.65 0.68526 0.24828-23.727 25.648-54.25 56.444s-62.814 64.248-71.757 74.338c-15.359 17.329-35.777 38.242-33.628 34.443z" fill="#967350"/>
  <path d="m203.11 653.38-2.8079-2.329 4.6448 1.2465c3.334 0.89475 5.4752 0.86814 7.5875-0.0943 3.5129-1.6006 4.7428-0.81758 2.6592 1.693-2.109 2.5412-8.7389 2.258-12.083-0.51621zm386.76-9.1896c-1.8887-2.4011-2.3142-4.091-1.716-6.8148 0.76937-3.5029-1.1942-5.5912-59.721-63.516-55.346-54.776-77.427-75.807-99.069-94.356-4.3091-3.6933-10.754-9.4471-14.323-12.786s-6.9667-6.0709-7.5514-6.0709c-1.0154 0-8.8752 6.8332-27.425 23.842-4.6698 4.282-13.308 11.758-19.195 16.613-12.808 10.562-143.32 140.23-143.32 142.39 0 2.0038-1.9612 1.9332-2.7409-0.0987-1.0175-2.6516 150.94-152.95 160.84-159.08 1.6882-1.0456 6.2808-5.1515 10.206-9.1244s10.615-9.9861 14.868-13.363 11.135-9.858 15.295-14.403 8.977-9.0055 10.705-9.9124 7.7278-6.1506 13.334-11.653 12.564-11.669 15.462-13.706 10.622-9.156 17.164-15.822 19.101-18.607 27.91-26.535 40.12-38.326 69.58-67.549 55.036-54.284 56.835-55.691c2.7589-2.1571 3.2709-2.2554 3.2709-0.62791 0 1.0612-0.74954 3.3748-1.6657 5.1413-3.6076 6.9563-137.14 136.33-153.55 148.77-1.9625 1.4877-8.6529 7.4151-14.868 13.172s-14.377 12.97-18.138 16.029-6.8391 6.5227-6.8391 7.6966 5.6199 8.3381 12.489 15.92 12.489 14.086 12.489 14.452c0 1.9483-3.4622 0.20417-5.7575-2.9003-4.9046-6.6339-20.67-23.79-21.862-23.79-1.4434 0-14.673 10.457-18.727 14.803-3.556 3.8116-2.7659 5.6068 4.6904 10.657 2.8068 1.901 8.9567 7.3729 13.667 12.16s12.015 11.528 16.234 14.979c10.555 8.6353 9.6939 7.8038 77.767 75.115 33.363 32.989 62.474 61.598 64.692 63.574 3.4202 3.0482 3.9223 4.1432 3.3082 7.2136-0.9135 4.5675 1.6342 6.3471 6.6056 4.6141 4.7418-1.653 5.4886-0.30602 1.0911 1.968-5.3501 2.7666-9.1354 2.3508-12.024-1.321zm-402.72-6.8586c-1.0505-1.6033-1.7269-3.8656-1.5032-5.0274 0.26756-1.3894 1.0827-0.39165 2.3816 2.915 2.2307 5.6788 1.9309 6.3998-0.8784 2.1123zm177.6-215.15c-8.3335-7.3034-19.573-17.202-24.977-21.996s-14.643-12.819-20.53-17.833-36.81-35.068-68.717-66.788c-49.503-49.214-58.199-58.367-59.286-62.405-1.4456-5.3686 0.0604-12.401 3.2169-15.02 1.6686-1.3848 1.7843-1.0732 1.0516 2.8324-1.8826 10.035-3.2138 8.4295 55.655 67.133 30.248 30.163 58.449 57.956 62.67 61.763s14.241 13.478 22.266 21.492 15.316 14.57 16.201 14.57c2.2991 0 29.754 27.472 28.578 28.597-0.53728 0.51394-7.7952-5.0411-16.129-12.344zm106.14-88.211c0.81438-0.98126 1.7483-1.7841 2.0754-1.7841s-0.0716 0.80285-0.88597 1.7841-1.7483 1.7841-2.0754 1.7841 0.0716-0.80285 0.88597-1.7841z" fill="#705f4f"/>
  <path d="m206.85 654.52c-1.3975-0.90314-1.0964-1.1569 1.3895-1.1712 1.7455-0.01 4.154-0.32952 5.3523-0.71001 1.9937-0.63304 1.9827-0.53203-0.13005 1.1894-2.6528 2.1615-4.1028 2.3132-6.6117 0.69181zm383.72-10.553c-1.259-1.3911-1.909-3.8153-1.7311-6.4562 0.20326-3.0182-0.41447-4.849-2.1579-6.3956-1.3435-1.1918-5.3307-5.3556-8.8605-9.2529l-6.4178-7.086 9.2179 8.2498c5.0698 4.5374 9.2179 8.6267 9.2179 9.0873s1.0928 1.1843 2.4285 1.6082c2.3723 0.75296 2.4118 1.6674 0.31337 7.2646-0.27493 0.73337 0.37197 2.2052 1.4376 3.2709 1.5524 1.5524 1.6027 1.9375 0.25275 1.9375-0.9266 0-2.5919-1.0024-3.7006-2.2275zm-375.39-1.8081c0-0.91127 0.81523-1.9697 1.8116-2.352 1.478-0.56717 1.5798-0.26206 0.55285 1.6569-1.4756 2.7571-2.3645 3.0185-2.3645 0.69518zm14.508-14.697c4.9352-5.0698 13.993-14.019 20.129-19.888s2.3304-1.7204-8.456 9.2179-19.844 19.888-20.129 19.888 3.5208-4.148 8.456-9.2179zm322-32.114-2.8835-3.2709 3.2709 2.8835c1.799 1.5859 3.2709 3.0578 3.2709 3.2709 0 0.93283-0.96318 0.17363-3.6582-2.8835zm-288.94-0.42718c0-0.27055 8.961-9.3172 19.913-20.104s16.333-15.865 11.956-11.286-9.9925 10.486-12.48 13.127c-5.5895 5.9344-19.39 18.932-19.39 18.262zm281.74-6.7092c-1.4795-1.8865-1.4374-1.9285 0.44907-0.44908 1.1448 0.89783 2.0814 1.8345 2.0814 2.0815 0 0.97893-0.97672 0.34886-2.5305-1.6324zm-5.8853-5.947-2.8835-3.2709 3.2709 2.8835c1.799 1.5859 3.2709 3.0578 3.2709 3.2709 0 0.93283-0.96318 0.17363-3.6582-2.8835zm-8.9435-8.9205-2.2658-2.6762 2.6762 2.2658c1.4719 1.2462 2.6762 2.4505 2.6762 2.6762 0 0.95182-0.95722 0.24912-3.0865-2.2658zm-205.67-39.89c7.1847-7.3345 13.291-13.336 13.57-13.336 0.88918 0-12.104 13.445-19.496 20.175-3.925 3.573-1.258 0.49546 5.9267-6.8391zm157.62-7.3885c0-0.65417 0.23602-1.1894 0.5245-1.1894s0.8553 0.53524 1.2596 1.1894 0.16828 1.1894-0.5245 1.1894-1.2596-0.53523-1.2596-1.1894zm-7.7311-7.1364c-1.184-1.3084-1.6176-2.3788-0.96339-2.3788s2.1582 1.0705 3.3422 2.3788 1.6176 2.3788 0.96339 2.3788-2.1582-1.0705-3.3422-2.3788zm-20.909-19.791c-2.7449-2.9844-2.7574-3.067-0.26916-1.773 2.7602 1.4354 4.5126 3.5389 3.6591 4.3924-0.28098 0.28098-1.8065-0.89773-3.39-2.6194zm-91.49-0.86517c0-1.0382 9.8387-10.305 12.46-11.735 2.2176-1.2102 2.2501-1.1323 0.57747 1.3868-1.7685 2.6635-13.037 11.608-13.037 10.349zm64.796-22.425c-5.0775-4.1111-6.6734-5.9228-5.8993-6.697 0.63736-0.63735 8.1681 5.7688 9.9292 8.4463 1.8813 2.8604 1.4118 2.6566-4.0299-1.7493zm-33.345-6.3013c3.2335-2.8973 6.1205-5.0264 6.4156-4.7313 0.83552 0.83554-9.1397 10.112-10.809 10.052-0.81698-0.0293 1.1602-2.4238 4.3937-5.3212zm19.693-16.007c0-2.3784 12.166-14.325 15.363-15.087 1.69-0.40241 3.7418-1.2586 4.5595-1.9027s1.4552-0.70408 1.4166-0.13334-3.5613 3.9814-7.8284 7.5794c-11.26 9.4946-13.511 11.084-13.511 9.5432zm31.757-30.224c1.2392-2.1494 10.979-10.244 12.326-10.244 1.9741 0-0.27765 2.9886-5.6009 7.4338-5.4425 4.5447-8.449 5.8012-6.7248 2.8104zm-84.825-6.438c-6.6079-5.2344-9.4201-8.3212-8.4577-9.2836 0.36428-0.36428 1.6448-0.1249 2.8456 0.53194 3.1673 1.7325 12.858 11.914 12.08 12.692-0.36299 0.363-3.2734-1.4102-6.4675-3.9404zm112.54-17.503c0-1.0519 22.545-22.872 36.872-35.687 7.523-6.729 21.707-20.337 31.519-30.241 39.141-39.504 86.369-86.319 87.458-86.694 0.634-0.21806 1.1731 0.58478 1.198 1.7841 0.0277 1.3312-21.631 23.648-55.605 57.295-48.376 47.91-64.022 62.772-93.65 88.954-5.3979 4.7702-7.7922 6.1801-7.7922 4.5882zm-159.56-24.243c-26.758-24.046-119.66-117.85-120.62-121.8-0.98574-4.0371 0.0803-11.435 1.9041-13.214 0.97117-0.94693 1.1066-0.10273 0.50698 3.1604-0.44999 2.4488-0.45052 5.9278-1e-3 7.7311 0.54702 2.1953 20.34 22.702 59.898 62.058 32.495 32.328 60.966 60.16 63.27 61.849 9.9285 7.277 16.944 15.559 13.18 15.559-0.58704 0-8.7493-6.9034-18.138-15.341z" fill="#674f37"/>
 </g>
</svg>
