<?xml version="1.0" encoding="UTF-8"?>
<!DOCTYPE svg  PUBLIC '-//W3C//DTD SVG 1.1//EN'  'http://www.w3.org/Graphics/SVG/1.1/DTD/svg11.dtd'>
<svg enable-background="new 0 0 163.3 131.9" version="1.1" viewBox="0 0 163.3 131.9" xml:space="preserve" xmlns="http://www.w3.org/2000/svg" xmlns:xlink="http://www.w3.org/1999/xlink">
<symbol id="i" viewBox="0 -131.9 163.3 131.9">
					<use transform="translate(0 -87.15)" y="-44.75" width="163.3" height="44.75" enable-background="new" opacity=".6289" xlink:href="#j"/>
					<use transform="translate(21.3 -95.95)" y="-26.825" width="121" height="26.835" enable-background="new" opacity=".1406" xlink:href="#k"/>
					<radialGradient id="g" cx="15947" cy="69.549" r="99.922" gradientTransform="matrix(.021 .9998 .9998 -.021 -322.74 -16062)" gradientUnits="userSpaceOnUse">
					<stop stop-color="#74DEBE" offset=".0235"/>
					<stop stop-color="#78E0C0" offset=".2353"/>
					<stop stop-color="#84E5C8" offset=".451"/>
					<stop stop-color="#99EDD3" offset=".6627"/>
					<stop stop-color="#B5F9E4" offset=".8784"/>
					<stop stop-color="#C4FFED" offset=".9765"/>
				</radialGradient>
				<path d="m89.45-7.35c1.933-1.066 3.383-2.7 4.35-4.9 0.633-1.467 1.284-4.517 1.95-9.15 0.6-4.033 1.7-7.317 3.3-9.85 1.767-2.8 3.25-5.733 4.45-8.8 0.633-1.5 1.067-2.733 1.3-3.7l2.3 0.5c1.667 0.5 2.816 1.167 3.45 2s1.45 1.283 2.45 1.35c0.5 0.066 0.933 0.033 1.3-0.1l2.2-2.9c1.633-2.2 2.817-3.983 3.55-5.35 0.1-0.167 0.733-1.5 1.9-4 0.6-1.267 1.3-2.35 2.1-3.25l2-2.25 0.15-5.95c0.167-4.3 0.45-7.233 0.85-8.8 0.233-0.867 0.567-3.15 1-6.85 0.4-3.467 0.983-6.433 1.75-8.9 0.833-2.7 1.383-5.883 1.65-9.55 0.1-1.833 0.133-3.4 0.1-4.7-8.667-5.5-14.583-9.417-17.75-11.75-2.333-1.733-4.417-2.883-6.25-3.45-1.733-0.533-4.066-0.8-7-0.8-1.966 0-4.483-0.383-7.55-1.15-3.1-0.733-5.5-1.1-7.2-1.1-3.367-0.133-5.833-0.217-7.4-0.25-2.733-0.067-5.017 0.1-6.85 0.5-1.433 0.333-3.283 1.017-5.55 2.05-2 0.967-3.65 1.534-4.95 1.7-0.933 0.133-2.133 0.2-3.6 0.2-1.267 0-2.983 0.183-5.15 0.55-5.566 0.967-9.4 2.05-11.5 3.25l-2.75 1.75c-3.5 4-5.75 6.083-6.75 6.25 0.8 0.667 1.617 1.6 2.45 2.8 1.733 2.434 2.75 5 3.05 7.7 0.267 2.167 0.25 4.367-0.05 6.6-0.3 2.6-0.367 5.316-0.2 8.15 0.2 3.333 0.767 6.567 1.7 9.7 1.4 4.5 2.167 7.1 2.3 7.8 0.633 4.367 1.1 7.633 1.4 9.8 0.566 3.833 1.35 6.4 2.35 7.7 0.767 1 1.45 2.15 2.05 3.45 0.733 1.5 1.8 3.267 3.2 5.3 2.667 3.833 4.667 6.667 6 8.5 0.367 1.233 0.883 2.617 1.55 4.15 1.333 3.033 2.733 5.233 4.2 6.6 2.8 2.6 4.3 4 4.5 4.2 1.534 1.466 3.284 3.233 5.25 5.3 3 3.167 5.5 5.5 7.5 7l2.3-1.15c1.767-1 3.167-2.117 4.2-3.35 0.5-0.6 1.967-1.55 4.4-2.85z" clip-rule="evenodd" fill="url(#g)" fill-rule="evenodd"/>
			<g clip-rule="evenodd" fill-rule="evenodd">
				<path d="m70.1-41.35l1.5 7.75 0.4-0.85c0.267-0.667 0.467-1.267 0.6-1.8 0.233-0.9 0.35-2.567 0.35-5 0-0.333 0.05-1 0.15-2 0.033-1.067-0.017-2.067-0.15-3-0.233-1.567-1.9-4.233-5-8v-5.35c-0.9-0.667-1.784-1-2.65-1-0.433 0-0.983 0.05-1.65 0.15-0.667 0.133-1.233 0.2-1.7 0.2-0.3 0-0.934-0.167-1.9-0.5-0.933-0.333-1.966-0.5-3.1-0.5-1.233 0-2.667 0.217-4.3 0.65l-2.05 0.65c2.467 0.233 4.467 0.8 6 1.7 0.967 0.533 1.7 1.133 2.2 1.8 0.434 0.767 0.817 1.383 1.15 1.85 1.767 2 3.983 4.55 6.65 7.65 1.667 1.967 2.833 3.833 3.5 5.6z" fill="#52C9A2"/>
				<path d="m86.95-65.6v-5.35c0-0.7-0.284-1.25-0.85-1.65-0.967-0.566-1.9-1.117-2.8-1.65-1.066-0.667-1.9-0.933-2.5-0.8-1.333 0.3-2.066 0.45-2.2 0.45-0.967 0-2.033 0.167-3.2 0.5l-1.45 0.5 2.9 0.45c2.167 0.367 3.867 0.767 5.1 1.2 1.267 0.4 2.483 1.583 3.65 3.55 0.567 0.967 1.017 1.9 1.35 2.8z" fill="#52C9A2"/>
				<path d="m50.3-45.95l6.65 6c2 1.8 4 3.7 6 5.7 0.267 0.133 1.783 0.283 4.55 0.45 1.4 0.066 2.767 0.133 4.1 0.2l-0.3-2v-2.35c0-1.533-0.566-2.867-1.7-4-1.333-0.433-3.333-0.533-6-0.3-1.633 0.133-2.833 0.05-3.6-0.25-1.267-0.633-2.733-1.217-4.4-1.75l-5.3-1.7z" fill="#D3F5EB"/>
				<path d="m86.95-65.6c-0.267-0.6-0.684-1.316-1.25-2.15-1.1-1.667-2.35-3.067-3.75-4.2-1.4-1.1-3.15-1.7-5.25-1.8l-2.75 0.15c0.433 0.567 0.95 1.15 1.55 1.75 1.167 1.233 2.1 1.983 2.8 2.25 0.6 0.233 1.217 0.75 1.85 1.55 0.7 0.9 1.3 1.5 1.8 1.8 1.1 0.667 2.767 0.883 5 0.65z" fill="#BCF5E4"/>
				<g fill="#74DEBE">
					<path d="m97.3-49.25c-0.167 1.7-0.133 3.05 0.1 4.05 0.133 0.667 0.65 2.2 1.55 4.6 0.667 1.7 1.117 2.233 1.35 1.6 0.167-0.5 0.267-0.7 0.3-0.6 0.133 0.467 0.183 1.283 0.15 2.45-0.033 1.4-0.067 2.45-0.1 3.15 2-3.667 3.383-6.917 4.15-9.75l0.6 0.1c-1.933-1.833-3.433-4.583-4.5-8.25-0.733-2.4-1.183-4.733-1.35-7-0.066 0.566-0.433 2.017-1.1 4.35-0.667 2.3-1.05 4.067-1.15 5.3z"/>
					<path d="m95.5-19.55c0.267-2.1 0.533-3.733 0.8-4.9 0.4-1.833 0.983-3.517 1.75-5.05-0.367 0.333-0.617 0.633-0.75 0.9-0.367 0.733-0.75 1.1-1.15 1.1-0.467 0.033-1.417-0.333-2.85-1.1-1.233-0.7-2.383-1.633-3.45-2.8l-1.25-1.55v8l4.7 3c0.933 0.6 1.667 1.4 2.2 2.4z"/>
				</g>
				<path d="m92.8-10.45c-0.667-0.267-1.417-0.45-2.25-0.55-1.3-0.2-2.85-0.75-4.65-1.65l-2.35-1.35c-6.167 0.267-10.483 0.183-12.95-0.25-1.934-0.3-3.184-0.517-3.75-0.65-0.833-0.2-1.684-0.65-2.55-1.35-0.8-0.7-1.583-1.867-2.35-3.5-0.434-0.967-1.217-2.7-2.35-5.2-0.733-1.5-2.967-3.517-6.7-6.05l2.65 3.75c0.367 1.233 0.883 2.617 1.55 4.15 1.333 3.033 2.733 5.233 4.2 6.6 2.8 2.6 4.3 4 4.5 4.2 1.534 1.466 3.284 3.233 5.25 5.3 3 3.167 5.5 5.5 7.5 7l2.3-1.15c1.767-1 3.167-2.117 4.2-3.35 0.6-0.733 1.867-1.583 3.8-2.55 1.767-0.9 3.083-2.033 3.95-3.4z" fill="#E0FFF5"/>
			</g>
				<path d="m116.8-48.75c0 0.633 0.133 1.317 0.4 2.05l0.35 0.95v1.4c1.3-1.933 2.133-3.233 2.5-3.9 0.1-0.167 0.733-1.5 1.9-4 0.6-1.267 1.3-2.35 2.1-3.25l2-2.25 0.15-5.95c0.167-4.3 0.45-7.233 0.85-8.8 0.233-0.867 0.567-3.15 1-6.85 0.4-3.467 0.983-6.433 1.75-8.9 0.833-2.7 1.383-5.883 1.65-9.55 0.1-1.833 0.133-3.4 0.1-4.7-8.667-5.5-14.583-9.417-17.75-11.75-2.333-1.733-4.417-2.883-6.25-3.45-1.733-0.533-4.066-0.8-7-0.8-1.966 0-4.483-0.383-7.55-1.15-3.1-0.733-5.5-1.1-7.2-1.1-3.367-0.133-5.833-0.217-7.4-0.25-2.733-0.067-5.017 0.1-6.85 0.5-1.433 0.333-3.283 1.017-5.55 2.05-2 0.967-3.65 1.534-4.95 1.7-0.933 0.133-2.133 0.2-3.6 0.2-1.267 0-2.983 0.183-5.15 0.55-5.566 0.967-9.4 2.05-11.5 3.25l-2.75 1.75c-3.5 4-5.75 6.083-6.75 6.25 1.5 0 2.667 0.5 3.5 1.5 0.3 0.5 0.517 0.833 0.65 1 0.167 0.233 1.117 1.067 2.85 2.5 1.833 1.5 2.967 2.567 3.4 3.2 0.333 0.767 0.7 1.533 1.1 2.3 0.034 0.067 0.5 0.85 1.4 2.35 0.3 0.533 0.5 1 0.6 1.4 0.333 2 0.583 3.25 0.75 3.75 0.333 0.567 0.617 1.1 0.85 1.6 0.434 0.9 0.65 1.867 0.65 2.9 0 0.8 0.117 2 0.35 3.6 0.2 1.333 0.25 2.217 0.15 2.65-0.1 0.533 0 1.233 0.3 2.1l0.45 1.15c0.333 0.833 0.583 1.917 0.75 3.25l0.5 4.25 1.5-1.85c1.1-1.367 1.85-2.417 2.25-3.15 0.667-1.167 2-2.583 4-4.25l0.4-0.8c0.5-0.434 1.367-0.5 2.6-0.2 1 0.233 1.983 0.55 2.95 0.95 0.633 0.167 1.317-0.067 2.05-0.7 0.6-0.5 1.434-1.2 2.5-2.1 0.867-0.733 1.45-1.367 1.75-1.9 0.267-0.433 0.833-0.967 1.7-1.6 0.867-0.6 1.383-1.066 1.55-1.4 0.333-0.667 1.75-1.833 4.25-3.5l0.35-1.45c0.467-1.066 1.267-1.917 2.4-2.55 1.767-0.967 2.733-1.483 2.9-1.55 0.633-0.2 1.167-0.017 1.6 0.55 0.667 1 1.5 2.167 2.5 3.5 0.934 1.233 1.483 1.983 1.65 2.25 0.333 0.6 0.617 1.35 0.85 2.25 0.2 0.833 0.3 1.667 0.3 2.5l-0.05 1c-0.667 2.667-1 4.167-1 4.5 0 0.367 0.4 1.233 1.2 2.6 0.833 1.333 1.433 2.133 1.8 2.4 0.5 0.333 1.583 0.667 3.25 1l2.25-5 2.75-3.5 0.15 0.35c0.2 0.033 0.566-0.417 1.1-1.35 0.833-1.5 1.333-2.917 1.5-4.25l1.25-3c0.167-0.5 0.733-0.95 1.7-1.35 1.033-0.433 1.717-0.316 2.05 0.35 0.5 1 1.083 2.083 1.75 3.25 0.267 0.467 0.817 1.183 1.65 2.15 0.566 0.7 0.85 1.233 0.85 1.6 0 0.033 0.2 0.417 0.6 1.15 0.367 0.7 0.5 1.9 0.4 3.6-0.133 2.067-0.15 3.933-0.05 5.6 0.1 1.6 0.283 2.65 0.55 3.15 0.133 0.3 0.434 0.733 0.9 1.3 0.466 0.6 0.833 1.167 1.1 1.7l1.4 2.05c0.566 0.833 0.85 1.65 0.85 2.45v3.25c0.167 0.5 0.167 1.333 0 2.5-0.066 0.467-0.216 1.167-0.45 2.1-0.2 0.7-0.3 1.333-0.3 1.9z" clip-rule="evenodd" fill="#74DEBE" fill-rule="evenodd"/>
				<path d="m90.8-98.25c1.333 1.833 2.417 3.583 3.25 5.25 1.333 2.667 2.333 4.333 3 5s1.667 1.5 3 2.5l0.85 0.45c0.633 0.233 1.1 0.083 1.4-0.45 0.5-0.833 1.5-3 3-6.5 0.333-0.667 1-1.583 2-2.75l0.75-1.25 0.85-0.55c0.7-0.034 1.417 0.733 2.15 2.3 0.633 1.367 1.184 2.8 1.65 4.3 0.367 1.3 0.65 2.117 0.85 2.45 0.3 0.5 0.767 0.933 1.4 1.3l1.6 0.95c0.067 0.067 0.717 0.15 1.95 0.25 0.833 0.067 1.35 0.65 1.55 1.75 0.1 0.567 0.2 1.717 0.3 3.45 0.1 1.233 0.333 2.333 0.7 3.3 0.2 0.467 0.467 1.667 0.8 3.6 0.167 0.933 0.483 1.066 0.95 0.4 1.3-1.8 2.05-3.217 2.25-4.25 0.067-0.333 0.267-0.733 0.6-1.2 0.267-0.367 0.4-0.883 0.4-1.55 0-1.167 0.667-2.333 2-3.5l0.5-0.05c0.4-2.133 0.817-3.867 1.25-5.2 0.833-2.7 1.383-5.883 1.65-9.55 0.1-1.833 0.133-3.4 0.1-4.7-8.667-5.5-14.583-9.417-17.75-11.75-2.333-1.733-4.417-2.883-6.25-3.45-1.733-0.533-4.066-0.8-7-0.8-1.966 0-4.483-0.383-7.55-1.15-3.1-0.733-5.5-1.1-7.2-1.1-3.367-0.133-5.833-0.217-7.4-0.25-2.733-0.067-5.017 0.1-6.85 0.5-1.433 0.333-3.283 1.017-5.55 2.05-2 0.967-3.65 1.534-4.95 1.7-0.933 0.133-2.133 0.2-3.6 0.2-1.267 0-2.983 0.183-5.15 0.55-5.566 0.967-9.4 2.05-11.5 3.25l-2.75 1.75c-1 1.133-2.05 2.233-3.15 3.3 0.934 0.633 1.583 1.067 1.95 1.3 0.733 0.4 1.55 0.7 2.45 0.9 0.133 0.033 1.75 0.117 4.85 0.25 1.6 0.067 2.65 0.65 3.15 1.75 0.767 1.867 1.333 3.2 1.7 4 0.633 1.367 1.317 2.2 2.05 2.5 0.267 0.133 1.083 0.167 2.45 0.1 0.867-0.033 1.55 0.433 2.05 1.4 0.3 0.567 0.867 1.533 1.7 2.9 0.667 1.033 1.183 2.067 1.55 3.1 0.434 1.133 1.067 2.483 1.9 4.05l1.1 1.95 1.25 1 0.8-3.2c0.533-2.733 0.85-5.5 0.95-8.3 0.1-2.733 1.1-4.533 3-5.4 1.034-0.5 2.534-1.117 4.5-1.85 0.9-0.8 1.65-1.333 2.25-1.6 1.567-0.7 2.567-1.167 3-1.4 1.534-0.833 3.067-1.4 4.6-1.7 1.4-0.3 2.367-0.316 2.9-0.05 0.333 0.167 1.133 0.3 2.4 0.4 1.066 0.2 1.6 0.65 1.6 1.35 0 0.833 0.2 1.9 0.6 3.2 0.367 1.2 0.75 2.133 1.15 2.8z" clip-rule="evenodd" fill="#52C9A2" fill-rule="evenodd"/>
				<path d="m118.8-98.75c0.034 0.667 0.1 1.317 0.2 1.95 0.233 1.267 1 2.617 2.3 4.05 1.367 1.5 2.333 2.983 2.9 4.45 0.1 0.3 0.3 1.233 0.6 2.8l0.25 1.25 1.7-1.05c1.167-0.833 1.85-1.567 2.05-2.2 0.367-1.133 0.85-2 1.45-2.6 1-4.033 1.433-8.167 1.3-12.4-8.667-5.5-14.583-9.417-17.75-11.75-2.333-1.733-4.417-2.883-6.25-3.45-1.733-0.533-4.066-0.8-7-0.8-1.966 0-4.483-0.383-7.55-1.15-3.1-0.733-5.5-1.1-7.2-1.1-3.367-0.133-5.833-0.217-7.4-0.25-2.733-0.067-5.017 0.1-6.85 0.5-1.433 0.333-3.283 1.017-5.55 2.05-2 0.967-3.65 1.534-4.95 1.7-0.933 0.133-2.133 0.2-3.6 0.2-1.267 0-2.983 0.183-5.15 0.55-5.566 0.967-9.4 2.05-11.5 3.25l-0.15 0.05c1.934 0.133 3.633 0.417 5.1 0.85 2.333 0.733 3.517 1.1 3.55 1.1 0.367 0.067 1.5 0.183 3.4 0.35 0.633 0.066 1.25 0.45 1.85 1.15 2 2.333 3 4 3 5 0 0.433 0.317 0.983 0.95 1.65 0.7 0.767 1.133 1.383 1.3 1.85 0.1 0.3 0.167 0.85 0.2 1.65 0.067 0.667 0.333 1.533 0.8 2.6 0.267 0.6 0.784 1.417 1.55 2.45 0.4 0.5 0.55 1.183 0.45 2.05-0.333 2-0.5 3.417-0.5 4.25 0 0.533 0.217 1.1 0.65 1.7l0.6 0.8 1.1-6.85 0.15-1.9c0-1.2 0.2-2.233 0.6-3.1 0.467-3.566 0.684-5.783 0.65-6.65-0.133-1.433 0.05-3 0.55-4.7 0.467-1.566 1.033-2.75 1.7-3.55 0.434-0.5 0.817-0.967 1.15-1.4 0.267-0.233 0.966-0.517 2.1-0.85 0.733-0.233 1.6-0.333 2.6-0.3 1.233 0.066 2.783-0.083 4.65-0.45 2.3-0.433 3.85-0.7 4.65-0.8 0.566-0.067 1.6-0.133 3.1-0.2 0.633-0.033 1.767-0.2 3.4-0.5 0.7-0.133 1.15-0.05 1.35 0.25 0.4 0.6 0.667 1.05 0.8 1.35 0.233 0.667 0.3 1.383 0.2 2.15-0.167 0.8-0.267 1.35-0.3 1.65-0.067 0.467-0.05 1.333 0.05 2.6 0.1 1.233 0.3 2.35 0.6 3.35l0.4 1.15 2.25-5c0.667-2 1.917-3 3.75-3 0.934 0 2.217-0.083 3.85-0.25 1.233-0.067 1.95 0.1 2.15 0.5s0.55 0.9 1.05 1.5l0.7 0.75 2.25 1.75h2.25c3.167 2.167 4.917 3.667 5.25 4.5 0.2 0.533 0.517 1.067 0.95 1.6 0.2 0.267 0.383 0.483 0.55 0.65 0.034 0.233 0.1 0.517 0.2 0.85 0.17 0.633 0.35 1.1 0.55 1.4z" clip-rule="evenodd" fill="#3EB08B" fill-rule="evenodd"/>
				<path d="m78.4-121c-2.733-0.067-5.017 0.1-6.85 0.5-1.433 0.333-3.283 1.017-5.55 2.05-2 0.967-3.65 1.534-4.95 1.7-0.933 0.133-2.133 0.2-3.6 0.2-1.267 0-2.983 0.183-5.15 0.55-3.633 0.633-6.617 1.35-8.95 2.15 3.333-0.133 7.316-0.1 11.95 0.1 1.9 0 3.35 0.233 4.35 0.7 0.867 0.6 1.5 1.033 1.9 1.3 0.567 0.333 1 0.417 1.3 0.25 0.233-0.133 0.717-0.55 1.45-1.25 1.434-1.2 3.1-2.367 5-3.5 0.833-0.5 1.25-0.967 1.25-1.4 0.3-0.267 1.967-0.55 5-0.85 3.133-0.3 6.1-0.283 8.9 0.05 1.566 0.167 3.6 0.483 6.1 0.95 1.567 0.2 2.867 0.6 3.9 1.2l1.1 0.8 2.05-1.4c1.767-0.8 3.75-0.833 5.95-0.1 2.633 0.867 4.117 1.383 4.45 1.55s1.183 0.817 2.55 1.95c2.4 1.967 4.983 3.8 7.75 5.5 2.6 1.6 4.684 3.183 6.25 4.75 1 1 1.917 1.583 2.75 1.75l1.25-0.25c1.034-0.2 2.034-0.333 3-0.4v-0.35c-8.667-5.5-14.583-9.417-17.75-11.75-2.333-1.733-4.417-2.883-6.25-3.45-1.733-0.533-4.066-0.8-7-0.8-1.966 0-4.483-0.383-7.55-1.15-3.1-0.733-5.5-1.1-7.2-1.1-3.367-0.13-5.833-0.22-7.4-0.25z" clip-rule="evenodd" fill="#21916D" fill-rule="evenodd"/>
					<use transform="translate(83.55 -10.4)" y="-108.1" width="48.012" height="108.1" enable-background="new" opacity=".4297" xlink:href="#l"/>
				<path d="m88.05-42.5l1.4-6.1c0.9-4.467 1.35-7.733 1.35-9.8 0-2.9 0.117-5.283 0.35-7.15 0.3-2.434 0.85-4.75 1.65-6.95 0.6-1.667 1.333-4.15 2.2-7.45 0.8-3.2 1.4-5.3 1.8-6.3 0.367-0.967 1.2-3.45 2.5-7.45 1.233-3.8 2.067-6.233 2.5-7.3 0.333-0.8 1.3-2.25 2.9-4.35 1.3-1.733 2-3.117 2.1-4.15 0.1-1.267-0.133-2.483-0.7-3.65-0.4-0.8-1.25-2.083-2.55-3.85-0.933-1.267-2.45-1.483-4.55-0.65l-2.075 1.175c0.495-0.15 1.12-0.225 1.875-0.225 1.233 0 2.2 0.184 2.9 0.55 0.867 0.433 1.65 1.233 2.35 2.4 0.733 1.233 0.917 2.767 0.55 4.6-0.4 1.767-1.233 3.417-2.5 4.95-0.967 1.133-2 3.267-3.1 6.4-1.567 4.233-2.617 6.917-3.15 8.05-1.033 2.167-2.267 5.467-3.7 9.9-1.3 4.367-2.083 6.934-2.35 7.7-0.267 0.833-0.5 2.833-0.7 6-0.233 3.767-0.417 6.066-0.55 6.9-0.2 1.467-0.35 4.7-0.45 9.7l-0.05 7.05z" clip-rule="evenodd" fill="#74DEBE" fill-rule="evenodd"/>
</symbol>
<symbol id="j" viewBox="0 -44.75 163.3 44.75">
			<radialGradient id="h" cx="81.4" cy="-22.65" r="70.362" gradientTransform="matrix(1 0 0 -.2667 0 -28.69)" gradientUnits="userSpaceOnUse">
			<stop stop-opacity=".6196" offset="0"/>
			<stop stop-opacity="0" offset="1"/>
		</radialGradient>
		<path d="m139.35-6.55c15.967-4.367 23.95-9.633 23.95-15.8 0-6.2-7.983-11.483-23.95-15.85-15.934-4.367-35.167-6.55-57.7-6.55-22.566 0-41.816 2.183-57.75 6.55-15.933 4.367-23.9 9.65-23.9 15.85 0 6.167 7.967 11.434 23.9 15.8 15.933 4.367 35.183 6.55 57.75 6.55 22.53 0 41.77-2.183 57.7-6.55z" clip-rule="evenodd" fill="url(#h)" fill-rule="evenodd"/>
</symbol>
<symbol id="k" viewBox="0 -26.825 121 26.835">
		<path d="m112.85-2.7c0.367-0.333 0.783-0.533 1.25-0.6 0.733-0.133 1.066-0.567 1-1.3-0.033-0.367-0.133-0.717-0.3-1.05l6.2-1.65c-1.833-0.667-3.1-1-3.8-1-0.467 0-1.05-0.2-1.75-0.6-0.567-0.333-1.583-1.033-3.05-2.1-1.133-0.833-1.767-1.367-1.9-1.6l0.2-0.05c-0.333-0.067-0.684-0.167-1.05-0.3-0.767-0.3-1.217-0.65-1.35-1.05s-0.65-0.767-1.55-1.1c-1.133-0.367-1.983-0.667-2.55-0.9-0.767-0.3-1.217-0.717-1.35-1.25-0.033-0.1-0.05-0.683-0.05-1.75 0-0.467-0.633-0.883-1.9-1.25-1.733-0.533-3.033-1.117-3.9-1.75-1.167-0.867-2.45-1.383-3.85-1.55-2.933-0.167-6.117-0.417-9.55-0.75-4.1-0.4-6.05-0.7-5.85-0.9 0.033-0.033 0.217-0.066 0.55-0.1h-0.5c-0.867 0-2.433-0.117-4.7-0.35-2.3-0.233-3.717-0.35-4.25-0.35-0.7 0-1.817-0.117-3.35-0.35l-2.1-0.3c-4.566-0.233-7.533-0.233-8.9 0-0.867 0.133-2.483 0.183-4.85 0.15-2.367-0.1-3.733-0.15-4.1-0.15-0.7 0-1.716 0.667-3.05 2-0.433 0.433-1.117 0.667-2.05 0.7-1.034-0.033-1.733-0.05-2.1-0.05-0.4 0-1.267 0.117-2.6 0.35l-1.85 0.35-5.8 1.65c-3.9 0-6.184 0.117-6.85 0.35-0.8 0.233-2.033 0.75-3.7 1.55-1.966 0.967-3.033 1.667-3.2 2.1-0.133 0.4-0.617 0.683-1.45 0.85l-1.25 0.15c-1.167 0-2.2 0.217-3.1 0.65-0.8 0.367-1.333 0.683-1.6 0.95-0.367 0.367-0.633 0.95-0.8 1.75-0.133 0.6-0.9 1.1-2.3 1.5-1.867 0.5-3.15 1-3.85 1.5l3.05 2c1.367 0.667 2.517 1 3.45 1 0.567 0 0.9 0.6 1 1.8 0.067 0.633 0.067 1.25 0 1.85 5.967 0.233 15.567 1.117 28.8 2.65 7.633 0.9 13.4 0.967 17.3 0.2 0.933-0.167 2.033-0.4 3.3-0.7 1.033-0.167 2.167-0.1 3.4 0.2 2.233 0.5 6.75 0.8 13.55 0.9 7.367 0.1 11.566 0.217 12.6 0.35 1.8 0.2 6.167-0.1 13.1-0.9 7.434-0.9 11.267-1.35 11.5-1.35 0.9 0 1.5-0.133 1.8-0.4z" clip-rule="evenodd" fill-rule="evenodd"/>
</symbol>
<symbol id="l" viewBox="0 -108.1 48.012 108.1">
		<path d="m40.5-45.1l2-2.25 0.15-5.95c0.167-4.3 0.45-7.233 0.85-8.8 0.233-0.867 0.567-3.15 1-6.85 0.4-3.466 0.983-6.433 1.75-8.9 0.833-2.7 1.383-5.883 1.65-9.55 0.1-1.833 0.133-3.4 0.1-4.7l-7.1-4.55c-5.133-3.333-8.683-5.733-10.65-7.2-2.233-1.667-4.233-2.783-6-3.35-1.667-0.566-3.817-0.867-6.45-0.9 1.534 1.2 2.9 2.833 4.1 4.9 1.1 1.967 1.55 3.333 1.35 4.1-0.133 0.467-0.733 1.184-1.8 2.15-1.133 1.067-2.034 2.35-2.7 3.85-3.133 7.2-5.383 12.45-6.75 15.75-0.7 1.733-1.483 4.083-2.35 7.05-0.8 2.733-1.6 4.966-2.4 6.7-0.833 1.9-1.117 4.65-0.85 8.25 0.3 3.8 0.333 6.05 0.1 6.75-0.467 1.434-0.783 2.617-0.95 3.55-0.1 0.7-0.283 2.517-0.55 5.45-0.167 1.767-0.333 5.083-0.5 9.95-0.167 4.467-0.333 7.4-0.5 8.8-0.333 2.667-1.667 8.417-4 17.25 3 2 5.333 3 7 3 0.7 0 1.45 0.2 2.25 0.6l1-1.85c0.633-1.467 1.283-4.517 1.95-9.15 0.6-4.033 1.7-7.317 3.3-9.85 1.767-2.8 3.25-5.717 4.45-8.75 0.6-1.533 1.017-2.783 1.25-3.75-0.567-0.733-1.05-1.483-1.45-2.25-1.367-2.533-2.617-7.033-3.75-13.5-0.4-2.4-0.067-4.783 1-7.15 0.533-1.2 1.117-2.15 1.75-2.85 1 2.5 1.667 5.5 2 9 0.2 1.967 0.75 3.217 1.65 3.75 1.2 0.7 1.983 1.45 2.35 2.25 0.6 1.333 1.033 2.2 1.3 2.6 0.4 0.6 0.883 1.4 1.45 2.4 2.4 4.3 3.883 6.95 4.45 7.95 2.233-3 3.75-5.233 4.55-6.7 0.1-0.167 0.733-1.5 1.9-4 0.6-1.267 1.3-2.35 2.1-3.25z" clip-rule="evenodd" fill="#147352" fill-rule="evenodd"/>
</symbol>
<use transform="scale(1 -1)" y="-131.9" width="163.3" height="131.9" xlink:href="#i"/>
</svg>
