<?xml version="1.0" encoding="UTF-8"?>
<svg viewBox="0 0 999 843" xmlns="http://www.w3.org/2000/svg">
 <path d="m609 377l1 98v86l-2 61v33l-1 10-1 9-3 8-3 8-4 8-4 7-4 7-4 2-3 2-4 2-4 2-4 1h-9l-4-2-3 2-3 2-3 1-4-1-1-1-3 3-4 2-4 1-4 1h-9l-4 1-4 1-3-1h-7l-3-1h-4l-2-1-3-1-2-2-3 2-3 1h-3l-3-1-2-3-4-1-4 1-3-1-2 1h-3l-2-1h-3l-2-1-1-1-2-1-11-4-8-5-7-6-5-7-4-8-3-8-3-9-3-10-1-15-1-38-2-55-2-65-3-67-2-62-3-51-2-31 3-29 2-31 4-29 6-29 6-10 9-9 11-9 11-9 12-7 9-6 7-6 2-3 1-4v-3l-1-2-2-3-1-2-1-2 1-3 2-4v-11l-1-4-3-4v-18l1-6 5-3 6-2 6-1h14l6 1h7l6 1 4 7 2 7v16l-4 4-2 4 1 4 1 6 1 6-2 5-2 6 2 6 7 6 7 5 8 4 8 4 8 4 7 5 7 7 5 7 8 10 7 18 6 25 5 29 4 34 3 37 3 39 1 40z"/>
 <path d="m511 59l-3-1-4-1-5-1h-12l-6 1h-5l-4 1-1-3v-3l-1-3 1-8 4-1 5-1 6-1h7l6 1h5l4 1 2 1 1 4v14z" fill="#007fff"/>
 <g fill="#aad4ff">
  <path d="m545 717v-1l2-2 1-1 1-1 2 1-1 2h-1l-2 1-2 1z"/>
  <path d="m508 80l-5-1-4-1h-12l-4 1-4 1-5 1 1-4v-9l4-1 4-1 4-1h9l4 1 4 1 4 1-1 3v5l1 4z"/>
  <path d="m476 718v-2l6 4h-3l-1-1-2-1z"/>
  <path d="m520 117l-4-2-3-2-3-3-2-3-2-3-2-4v-9l-3-1h-7l-4-1-3 1h-3l-3 1h-3v7l-2 7-4 7-6 5-3 2-4 2-4 2-3 2-1 1v1l-1 2v1l-6 38-2 65-1 83 2 94 2 95 3 88 3 73 2 49 2 1h7l13-10h3l3 1 3 1 2 1 2 3 2 3 1 3 1 3h28l-12-554 2-21 3-15 4-9 3-5z"/>
 </g>
 <path d="m492 133l-2 14-3 39-3 56 3 68 2 49 2 109 1 112-3 58h-5l-3-1h-3l-3-1-2-1v-1l-2-67-3-154v-164l5-100v-2l2-3 3-4 3-5 4-4 3-3 3 1 1 4z" fill="#aff"/>
 <g fill="#fff">
  <path d="m486 149l-1-1-2-1-4-1-4-1h-4l-5 1-5 3-3 5-1 10-2 27-2 37-1 42v41l2 35 5 23 9 5 6-12 4-27 3-35 2-42 2-40 1-35v-34z"/>
  <path d="m472 408l-2-1h-4l-3 6v17l3 14h3l2-6 1-3v-27z"/>
 </g>
 <g fill="#aff">
  <path d="m593 682l1-3 1-3v-3l1-2 2-62 1-107v-114l-4-83v-30l-2-19-2-22-3-23-5-23-8-22-2-5-3-5-3-4-3-4-4-4-3-3-4-3-4-3-3-3-4-3-4-2-4-2-3-2-4-2-4-2-4-2-3 5-4 9-3 15-2 21 12 554h2l2-1h6l1-1h1l1-1-2-4v-2l2-4 3-6 4-6 4-5 5-2 5 2 5 7 2 4 2 4 1 4 2 3h4l2-1 2-1 2-1 2-2 2-1 1-1 1-9 2-8 4-6 6-1z"/>
  <path d="m407 168l-5 25-3 25-2 26-2 26 2 44 3 103 4 121 2 96 1 9v9l2 9 2 8h5l3 1 2 2 3 2 2 3 2 5 2 6 1 8 2 6 2 5 2 5 4 1 3 1 4 1 4 1-2-49-3-73-3-88-2-95-2-94 1-83 2-65 6-38v-1l1-2v-1l1-1-7 4-7 4-6 5-5 5-6 5-4 6-5 6-4 7z"/>
 </g>
 <path d="m412 668l1 5 1 4 2 5 2 4 2 3 2 4 3 3 2 3 2 4 3 3 3 2 3 3-2-5-2-5-2-6-1-8-2-6-2-5-2-3-3-2-2-2-3-1h-5z" fill="#aad4ff"/>
 <g fill="#aff">
  <path d="m531 714l2 4 2-3 2-4 2-4 3-3 3-1 4-1h4l3 1 2 2 2 2 1 3v3h5l-2-3-1-4-2-4-2-4-5-7-5-2-5 2-4 5-4 6-3 6-2 4v2z"/>
  <path d="m594 682l-6 1-4 6-2 8-1 9 5-5 3-6 3-7 2-6z"/>
 </g>
 <path d="m450 139l-1 3-2 10-3 18-4 27-3 38-2 50-1 64v78l-1 5-4 8h-4l-2-19-1-25v-85l1-49 3-48 5-39 7-27 12-9z" fill="#aad4ff"/>
 <path d="m414 667h3l2 1 3 1 4 4 3 6 3 9 2 13 1 1 1 3 2 4 2 3 3 1-1-2-3-4-2-4-1-3v-12l-2-7-3-7-4-5-7-4h-9l1 1 1 1h1z" fill="#aff"/>
 <g fill="#fff">
  <path d="m460 693v-1l2-3 3-5 3-5 3-6 4-4 4-3 3-1 4 2 3 4 2 6 3 6 2 7 2 5 1 4v1h3v-1l-1-5-1-5-2-7-2-7-4-6-4-4-5-2-6 1-5 3-4 5-4 5-2 6-3 5-1 3v1l2 1z"/>
  <path d="m530 699v-1l1-4 2-6 2-7 2-6 2-6 3-4 3-1 3 1 3 4 3 5 3 5 3 6 1 5 2 3v2h2v-2l-1-4-2-5-2-6-3-7-3-5-4-4-6-1-4 2-4 4-3 6-2 7-2 7-1 6-1 5v1h3z"/>
 </g>
 <g fill="#aad4ff">
  <path d="m480 677l-2 21h-2l-4 1-5 2-4 3 1-2 2-5 4-5 3-5 4-5 2-3 1-2z"/>
  <path d="m484 680l1 1 4 4 4 8 4 15-1-1-4-3-4-2-4-2v-20z"/>
  <ellipse cx="439" cy="693" rx="6" ry="19"/>
  <ellipse cx="539" cy="689" rx="7" ry="13"/>
  <path d="m581 707v-6l1-6 1-7 2-7 3-6 4-3 5-1v-5h-1l-3 1-4 1-5 3-4 5-3 7-1 11 2 14 3-1z"/>
 </g>
 <g fill="#999">
  <path d="m469 709v-1l2-2 3-1 4-2 4-1 4 2 4 3 3 7h3v-4l-2-3-2-4-4-2-5-1-7 2-9 4 2 3z"/>
  <path d="m535 706l1-2 2-4 4-3h6l3-4h-1l-1-1h-2l-3 1-3 1-3 2-3 3-3 5 3 2z"/>
  <path d="m582 697v7l3-4-3-3z"/>
 </g>
 <ellipse cx="491" cy="85" rx="22" ry="2" fill="#aad4ff"/>
 <g fill="#fff">
  <ellipse cx="488" cy="84" rx="14" ry="2"/>
  <path d="m488 65v10l-1 4 2-1v-1l2-3v-9h-3z"/>
 </g>
 <ellipse cx="493" cy="116" rx="31" ry="4" fill="#1e1e1e"/>
 <g fill="#aff">
  <path d="m468 120l-1 1h-3l-4 2-4 2-5 2-5 4-5 4-4 4v1l-1 1v1h2l2-2 4-2 4-3 4-4 5-3 4-3 4-2 4-1h4v-1l-2-1h-3z"/>
  <path d="m494 117h2l5 1 6 2 8 2 9 3 8 4 7 5 6 6 2 1 1-1-1-2-1-1-3-2-3-4-6-3-7-4-9-3-10-3-13-2h-2v1h1z"/>
 </g>
 <ellipse cx="487" cy="109" rx="13" ry="1" fill="#00c623"/>
 <path d="m496 94v8l1 6 2 3h4l4 1 3 1h1l-2-2-3-5-3-7-1-5-1-3h-2l-3 1v2z" fill="#aff"/>
 <ellipse cx="486" cy="98" rx="2" ry="9" fill="#fff"/>
</svg>
