<svg xmlns="http://www.w3.org/2000/svg" viewBox="0 0 171.54 122.95"><defs><style>.cls-1{stroke:#231f20;stroke-miterlimit:10;}</style></defs><g id="Layer_2" data-name="Layer 2"><g id="Layer_1-2" data-name="Layer 1"><path class="cls-1" d="M104.9,56c.57,25.42-9.56,55.15-19.15,55.15S66,81.43,66.6,56C67.18,30.16,78.77,10.68,85.75.86,92.73,10.68,104.32,30.16,104.9,56Z"/><path class="cls-1" d="M150.21,91.19c-15.91,19.84-42.77,36.1-50.12,29.93s4-35.44,20.78-54.55c17.06-19.43,38.46-26.9,50.12-29.94C170,48.64,166.38,71,150.21,91.19Z"/><path class="cls-1" d="M50.67,65.74c16.78,19.1,28.13,48.39,20.78,54.55s-34.21-10.1-50.11-29.94C5.16,70.18,1.52,47.8.55,35.8,12.21,38.84,33.61,46.31,50.67,65.74Z"/></g></g></svg>